<svg width="24" height="24" viewBox="0 0 24 24" fill="none" xmlns="http://www.w3.org/2000/svg">
<g id="icon / bitcoin">
<g id="Union">
<path fill-rule="evenodd" clip-rule="evenodd" d="M11 7.5H12V6.5H14V7.5H14.9142L16.5 9.08579V11.4142L15.9142 12L16.5 12.5858V14.9142L14.9142 16.5H14V17.5H12V16.5H11V17.5H9V16.5H8V14.5H9V9.5H8V7.5H9V6.5H11V7.5ZM11 14.5H14.0858L14.5 14.0858V13.4142L14.0858 13H11V14.5ZM11 11V9.5H14.0858L14.5 9.91421V10.5858L14.0858 11H11Z" fill="#4F4B5C"/>
<path fill-rule="evenodd" clip-rule="evenodd" d="M12 2C6.47715 2 2 6.47715 2 12C2 17.5228 6.47715 22 12 22C17.5228 22 22 17.5228 22 12C22 6.47715 17.5228 2 12 2ZM4 12C4 7.58172 7.58172 4 12 4C16.4183 4 20 7.58172 20 12C20 16.4183 16.4183 20 12 20C7.58172 20 4 16.4183 4 12Z" fill="#4F4B5C"/>
</g>
</g>
</svg>
