<svg width="24" height="24" viewBox="0 0 24 24" fill="none" xmlns="http://www.w3.org/2000/svg">
<g id="icon / camera">
<g id="Union">
<path fill-rule="evenodd" clip-rule="evenodd" d="M12 8C9.79086 8 8 9.79086 8 12C8 14.2091 9.79086 16 12 16C14.2091 16 16 14.2091 16 12C16 9.79086 14.2091 8 12 8ZM10 12C10 10.8954 10.8954 10 12 10C13.1046 10 14 10.8954 14 12C14 13.1046 13.1046 14 12 14C10.8954 14 10 13.1046 10 12Z" fill="#4F4B5C"/>
<path fill-rule="evenodd" clip-rule="evenodd" d="M15.5352 3H8.46482L6.46482 6H2V20H22V6H17.5352L15.5352 3ZM7.53518 8L9.53518 5H14.4648L16.4648 8H20V18H4V8H7.53518Z" fill="#4F4B5C"/>
</g>
</g>
</svg>
