<svg width="24" height="24" viewBox="0 0 24 24" fill="none" xmlns="http://www.w3.org/2000/svg">
<g id="icon / day">
<g id="Union">
<path d="M13 1V4H11V1H13Z" fill="#4F4B5C"/>
<path fill-rule="evenodd" clip-rule="evenodd" d="M6 12C6 8.68629 8.68629 6 12 6C15.3137 6 18 8.68629 18 12C18 15.3137 15.3137 18 12 18C8.68629 18 6 15.3137 6 12ZM12 8C9.79086 8 8 9.79086 8 12C8 14.2091 9.79086 16 12 16C14.2091 16 16 14.2091 16 12C16 9.79086 14.2091 8 12 8Z" fill="#4F4B5C"/>
<path d="M13 23V20H11V23H13Z" fill="#4F4B5C"/>
<path d="M20.4853 4.92895L18.364 7.05027L16.9498 5.63606L19.0711 3.51474L20.4853 4.92895Z" fill="#4F4B5C"/>
<path d="M4.92894 20.4853L7.05026 18.364L5.63605 16.9498L3.51473 19.0711L4.92894 20.4853Z" fill="#4F4B5C"/>
<path d="M20.4853 19.0711L18.364 16.9498L16.9498 18.364L19.0711 20.4853L20.4853 19.0711Z" fill="#4F4B5C"/>
<path d="M4.92894 3.5147L7.05026 5.63602L5.63605 7.05023L3.51473 4.92891L4.92894 3.5147Z" fill="#4F4B5C"/>
<path d="M23 13H20V11H23V13Z" fill="#4F4B5C"/>
<path d="M1 13H4V11H1V13Z" fill="#4F4B5C"/>
</g>
</g>
</svg>
