<svg width="24" height="24" viewBox="0 0 24 24" fill="none" xmlns="http://www.w3.org/2000/svg">
<g id="icon / gas">
<path id="Union" fill-rule="evenodd" clip-rule="evenodd" d="M15 18C15 19.6569 16.3431 21 18 21C19.6569 21 21 19.6569 21 18V7.00001C21 6.7348 20.8946 6.48044 20.7071 6.29291L19.7071 5.29291L19.7056 5.29137L16.7071 2.29291L15.2929 3.70712L17.7832 6.19747L16.8944 7.97509C15.8974 9.96913 17.014 12.2673 19 12.8566V18C19 18.5523 18.5523 19 18 19C17.4477 19 17 18.5523 17 18V16C17 14.3432 15.6569 13 14 13V4.00002L13 3.00002H4L3 4.00002V20L4 21H13L14 20V15C14.5523 15 15 15.4477 15 16V18ZM5 9.00002V5.00002H12V9.00002H5ZM5 11V19H12V11H5Z" fill="#4F4B5C"/>
</g>
</svg>
