<svg width="24" height="24" viewBox="0 0 24 24" fill="none" xmlns="http://www.w3.org/2000/svg">
<g id="icon / link">
<g id="Union">
<path d="M9.86396 14.1087C8.30186 12.5466 8.30186 10.014 9.86396 8.45186L13.3995 4.91632C14.9616 3.35423 17.4942 3.35423 19.0563 4.91632C20.6184 6.47842 20.6184 9.01108 19.0563 10.5732L17.2689 12.3606C17.2261 11.5873 17.0343 10.8207 16.6936 10.1075L17.6421 9.15896C18.4232 8.37792 18.4232 7.11159 17.6421 6.33054C16.8611 5.54949 15.5948 5.54949 14.8137 6.33054L11.2782 9.86607C10.4971 10.6471 10.4971 11.9135 11.2782 12.6945L9.86396 14.1087Z" fill="#4F4B5C"/>
<path d="M12.6924 14.1087C13.4734 13.3277 13.4734 12.0614 12.6924 11.2803L14.1066 9.86609C15.6687 11.4282 15.6687 13.9608 14.1066 15.5229L10.5711 19.0585C9.00897 20.6206 6.47632 20.6206 4.91422 19.0585C3.35212 17.4964 3.35212 14.9637 4.91422 13.4016L6.70162 11.6142C6.74446 12.3875 6.93624 13.1541 7.27695 13.8673L6.32843 14.8158C5.54738 15.5969 5.54738 16.8632 6.32843 17.6443C7.10948 18.4253 8.37581 18.4253 9.15686 17.6443L12.6924 14.1087Z" fill="#4F4B5C"/>
</g>
</g>
</svg>
