<svg width="24" height="24" viewBox="0 0 24 24" fill="none" xmlns="http://www.w3.org/2000/svg">
<g id="icon / new_fill">
<path id="Union" fill-rule="evenodd" clip-rule="evenodd" d="M19 2C17.3431 2 16 3.34315 16 5C16 6.65685 17.3431 8 19 8C20.6569 8 22 6.65685 22 5C22 3.34315 20.6569 2 19 2ZM20 9.89998C19.6769 9.96557 19.3425 10 19 10C16.2386 10 14 7.76142 14 5C14 4.65753 14.0344 4.32311 14.1 4H4V20H20V9.89998ZM8.21066 11.386L11.7107 6.88605L13.2894 8.11393L11.0446 11H15C15.3819 11 15.7305 11.2175 15.8983 11.5606C16.0661 11.9037 16.0238 12.3124 15.7894 12.6139L12.2894 17.1139L10.7107 15.886L12.9554 13H9.00001C8.61807 13 8.2695 12.7824 8.10169 12.4393C7.93389 12.0962 7.97617 11.6875 8.21066 11.386Z" fill="#4F4B5C"/>
</g>
</svg>
