<svg width="24" height="24" viewBox="0 0 24 24" fill="none" xmlns="http://www.w3.org/2000/svg">
<g id="icon / notification" clip-path="url(#clip0_3206_55377)">
<g id="Vector">
<path fill-rule="evenodd" clip-rule="evenodd" d="M11.9522 3.06422C11.3532 3.88861 11 4.90305 11 6C11 8.76142 13.2386 11 16 11C16.7111 11 17.3875 10.8516 18 10.584V12.5858L20 14.5858V20H15C15 20.2633 14.974 20.5269 14.9219 20.7867C14.8012 21.3883 14.5438 21.954 14.1695 22.4402C13.7952 22.9263 13.3141 23.3199 12.7634 23.5904C12.2126 23.8608 11.6071 24.001 10.9935 24C10.38 23.999 9.77489 23.8569 9.22505 23.5846C8.67522 23.3124 8.19538 22.9173 7.82266 22.4299C7.44994 21.9426 7.19433 21.376 7.0756 20.774C7.02516 20.5183 7 20.259 7 20H2V14.5858L4 12.5858V10C4 6.13401 7.13401 3 11 3C11.323 3 11.6408 3.02187 11.9522 3.06422ZM9.0378 20.387C9.01258 20.2591 9 20.1295 9 20H13C13 20.1317 12.987 20.2634 12.9609 20.3934C12.9006 20.6941 12.7719 20.977 12.5847 21.2201C12.3976 21.4632 12.157 21.6599 11.8817 21.7952C11.6063 21.9304 11.3035 22.0005 10.9968 22C10.69 21.9995 10.3874 21.9285 10.1125 21.7923C9.83761 21.6562 9.59769 21.4587 9.41133 21.215C9.22497 20.9713 9.09717 20.688 9.0378 20.387Z" fill="#4F4B5C"/>
<path fill-rule="evenodd" clip-rule="evenodd" d="M16 3C14.3431 3 13 4.34315 13 6C13 7.65685 14.3431 9 16 9C17.6569 9 19 7.65685 19 6C19 4.34315 17.6569 3 16 3Z" fill="#4F4B5C"/>
</g>
</g>
<defs>
<clipPath id="clip0_3206_55377">
<rect width="24" height="24" fill="white"/>
</clipPath>
</defs>
</svg>
