<svg width="24" height="24" viewBox="0 0 24 24" fill="none" xmlns="http://www.w3.org/2000/svg">
<g id="icon / pie chart">
<g id="Union">
<path fill-rule="evenodd" clip-rule="evenodd" d="M22 10C22 8.8181 21.7672 7.64778 21.3149 6.55585C20.8626 5.46392 20.1997 4.47177 19.364 3.63604C18.5282 2.80031 17.5361 2.13738 16.4442 1.68508C15.3522 1.23279 14.1819 1 13 1H12L12 11H22V10ZM19.4672 7.32122C19.6906 7.86065 19.8452 8.42469 19.9282 9L14 9L14 3.0718C14.5753 3.15484 15.1394 3.3094 15.6788 3.53284C16.5281 3.88463 17.2997 4.40024 17.9498 5.05025C18.5998 5.70026 19.1154 6.47194 19.4672 7.32122Z" fill="#4F4B5C"/>
<path d="M5.99987 4.51677C7.20117 3.71409 8.57377 3.21518 10 3.05572L10 5.07179C8.97058 5.22038 7.9828 5.5972 7.11101 6.17971C5.95987 6.94888 5.06266 8.04213 4.53285 9.32122C4.00303 10.6003 3.86441 12.0078 4.13451 13.3656C4.4046 14.7235 5.07129 15.9708 6.05026 16.9497C7.02922 17.9287 8.2765 18.5954 9.63437 18.8655C10.9922 19.1356 12.3997 18.997 13.6788 18.4672C14.9579 17.9373 16.0511 17.0401 16.8203 15.889C17.4028 15.0172 17.7796 14.0294 17.9282 13H19.9443C19.7848 14.4262 19.2859 15.7988 18.4832 17.0001C17.4943 18.4802 16.0887 19.6337 14.4442 20.3149C12.7996 20.9961 10.99 21.1743 9.24419 20.8271C7.49836 20.4798 5.89472 19.6226 4.63604 18.364C3.37737 17.1053 2.5202 15.5016 2.17294 13.7558C1.82567 12.01 2.0039 10.2004 2.68509 8.55585C3.36628 6.91131 4.51983 5.50571 5.99987 4.51677Z" fill="#4F4B5C"/>
</g>
</g>
</svg>
