<svg width="24" height="24" viewBox="0 0 24 24" fill="none" xmlns="http://www.w3.org/2000/svg">
<g id="icon / refresh">
<g id="Union">
<path d="M17.5535 7.73867C18.4915 8.96118 19 10.4591 19 12H21C21 10.0188 20.3463 8.09295 19.1402 6.52115C17.9341 4.94935 16.2431 3.81945 14.3294 3.30667C12.4157 2.7939 10.3862 2.92691 8.55585 3.68509C7.61318 4.07555 6.75043 4.62059 6 5.2918V4H4V9H9V7H7.10102C7.73635 6.37751 8.48871 5.87768 9.32122 5.53285C10.7449 4.94315 12.3233 4.8397 13.8117 5.23852C15.3002 5.63735 16.6154 6.51616 17.5535 7.73867Z" fill="#4F4B5C"/>
<path d="M6.44653 16.2613C5.50846 15.0388 5 13.5409 5 12H3C3 13.9812 3.65374 15.9071 4.85982 17.4789C6.0659 19.0507 7.75693 20.1806 9.67063 20.6933C11.5843 21.2061 13.6138 21.0731 15.4442 20.3149C16.3868 19.9245 17.2496 19.3794 18 18.7082V20H20V15H15V17H16.899C16.2636 17.6225 15.5113 18.1223 14.6788 18.4672C13.2551 19.0569 11.6767 19.1603 10.1883 18.7615C8.69983 18.3627 7.38459 17.4838 6.44653 16.2613Z" fill="#4F4B5C"/>
</g>
</g>
</svg>
