<svg width="24" height="24" viewBox="0 0 24 24" fill="none" xmlns="http://www.w3.org/2000/svg">
<g id="icon / search">
<path id="Union" fill-rule="evenodd" clip-rule="evenodd" d="M11 4C7.13401 4 4 7.13401 4 11C4 14.866 7.13401 18 11 18C12.5723 18 14.0236 17.4816 15.1922 16.6064L18.7071 20.1213L20.1213 18.7071L16.6064 15.1922C17.4816 14.0236 18 12.5723 18 11C18 7.13401 14.866 4 11 4ZM6 11C6 8.23858 8.23858 6 11 6C13.7614 6 16 8.23858 16 11C16 13.7614 13.7614 16 11 16C8.23858 16 6 13.7614 6 11Z" fill="#4F4B5C"/>
</g>
</svg>
