<svg width="24" height="24" viewBox="0 0 24 24" fill="none" xmlns="http://www.w3.org/2000/svg">
<g id="icon / about">
<path id="Union" fill-rule="evenodd" clip-rule="evenodd" d="M6.02168 2C4.36304 2 3 3.33301 3 5V19C3 20.6569 4.34315 22 6 22H20L20.7381 20.3253C20.0521 19.5749 20.0521 18.4251 20.7381 17.6747L20.7359 17.6698L20.74 17.668L21 17.4023V3L20 2H6.02168ZM18.3513 18H6C5.44772 18 5 18.4477 5 19C5 19.5523 5.44772 20 6 20H18.3513C18.181 19.3449 18.181 18.6551 18.3513 18ZM5 16.1707C5.31278 16.0602 5.64936 16 6 16H6.32886C6.77339 14.4754 7.82559 13.2118 9.20457 12.4861C8.7627 11.9111 8.5 11.1913 8.5 10.4101C8.5 8.52673 10.0268 7 11.9101 7C13.7934 7 15.3201 8.52674 15.3201 10.4101C15.3201 11.1913 15.0574 11.9112 14.6155 12.4862C15.9944 13.2119 17.0465 14.4754 17.4911 16H19V4H6.02168C5.44723 4 5 4.45785 5 5V16.1707ZM11.9035 13.8201C11.9057 13.8201 11.9079 13.8201 11.9101 13.8201C11.9122 13.8201 11.9144 13.8201 11.9165 13.8201C13.4353 13.8227 14.7479 14.7128 15.3581 16H8.46177C9.07201 14.7128 10.3847 13.8226 11.9035 13.8201ZM11.9152 11.8201C12.6916 11.8174 13.3201 11.1871 13.3201 10.4101C13.3201 9.63131 12.6888 9 11.9101 9C11.1313 9 10.5 9.63131 10.5 10.4101C10.5 11.1871 11.1285 11.8173 11.9049 11.8201H11.9152Z" fill="#4F4B5C"/>
</g>
</svg>
