<svg width="24" height="24" viewBox="0 0 24 24" fill="none" xmlns="http://www.w3.org/2000/svg">
<g id="icon / ecosystem_dApps_fill">
<path id="Union" fill-rule="evenodd" clip-rule="evenodd" d="M16.4142 2H7.58579L2 7.58579V16.4142L7.58579 22H16.4142L22 16.4142V7.58579L16.4142 2ZM8.34973 4.06449L5.41421 7H6.88197L8.34973 4.06449ZM4 9V15H6V9H4ZM5.41421 17L8.34971 19.9355L6.88196 17H5.41421ZM10.618 20H11V17H9.11803L10.618 20ZM13 20H13.382L14.882 17H13V20ZM15.6503 19.9355L18.5858 17H17.118L15.6503 19.9355ZM20 15V9H18V15H20ZM18.5858 7L15.6503 4.06449L17.118 7H18.5858ZM13.382 4H13V7H14.882L13.382 4ZM11 4H10.618L9.11804 7H11V4ZM16 14.7639L15.882 15H13V9H15.882L16 9.23608V14.7639ZM8.11804 9L8 9.23608V14.7639L8.11803 15H11V9H8.11804Z" fill="#4F4B5C"/>
</g>
</svg>
