<svg width="24" height="24" viewBox="0 0 24 24" fill="none" xmlns="http://www.w3.org/2000/svg">
<g id="icon / eye_hide">
<g id="Union">
<path fill-rule="evenodd" clip-rule="evenodd" d="M21.7212 3.71426L3.72122 21.7143L2.30701 20.3L6.09993 16.5071L1.59998 12.0072L7.06446 6.54269C9.64651 3.96063 13.7439 3.81742 16.494 6.11305L20.307 2.30005L21.7212 3.71426ZM15.0716 7.53545L13.0143 9.59277V9.00714H12.0143C11.4209 9.00714 10.8409 9.18309 10.3476 9.51273C9.85423 9.84238 9.46971 10.3109 9.24265 10.8591C9.01558 11.4073 8.95617 12.0105 9.07193 12.5924C9.12086 12.8384 9.20017 13.076 9.30713 13.2999L7.51415 15.0929L4.4284 12.0072L8.47867 7.9569C10.2789 6.15665 13.1104 6.01617 15.0716 7.53545Z" fill="#4F4B5C"/>
<path d="M14.2652 13.9904C14.1816 14.0853 14.0922 14.1747 13.9975 14.2581L14.2652 13.9904Z" fill="#4F4B5C"/>
<path d="M15.5497 16.0574C14.2794 17.3278 12.4956 17.7716 10.8664 17.3891L9.2854 18.9701C11.8327 20.0471 14.888 19.5476 16.964 17.4716L22.4284 12.0072L19.3384 8.91712L17.9242 10.3313L19.6 12.0072L15.5497 16.0574Z" fill="#4F4B5C"/>
</g>
</g>
</svg>
