<svg width="24" height="24" viewBox="0 0 24 24" fill="none" xmlns="http://www.w3.org/2000/svg">
<g id="icon / eye_view">
<path id="Union" fill-rule="evenodd" clip-rule="evenodd" d="M7.05029 6.53554L1.58582 12L7.05029 17.4645C9.78396 20.1982 14.2161 20.1982 16.9498 17.4645L22.4142 12L16.9498 6.53554C14.2161 3.80187 9.78395 3.80187 7.05029 6.53554ZM8.4645 16.0503L4.41424 12L8.4645 7.94976C10.4171 5.99714 13.5829 5.99713 15.5356 7.94975L19.5858 12L15.5356 16.0503C13.5829 18.0029 10.4171 18.0029 8.4645 16.0503ZM15 11H13V9.00002H12C11.4066 9.00002 10.8266 9.17597 10.3333 9.50562C9.83993 9.83526 9.45541 10.3038 9.22835 10.852C9.00129 11.4002 8.94188 12.0034 9.05764 12.5853C9.17339 13.1672 9.45911 13.7018 9.87867 14.1213C10.2982 14.5409 10.8328 14.8266 11.4147 14.9424C11.9967 15.0581 12.5999 14.9987 13.148 14.7717C13.6962 14.5446 14.1647 14.1601 14.4944 13.6667C14.824 13.1734 15 12.5934 15 12V11Z" fill="#4F4B5C"/>
</g>
</svg>
