<svg width="24" height="24" viewBox="0 0 24 24" fill="none" xmlns="http://www.w3.org/2000/svg">
<g id="icon / settings">
<g id="Vector">
<path fill-rule="evenodd" clip-rule="evenodd" d="M12 10C10.8954 10 10 10.8954 10 12C10 13.1046 10.8954 14 12 14C13.1046 14 14 13.1046 14 12C14 10.8954 13.1046 10 12 10ZM8 12C8 9.79086 9.79086 8 12 8C14.2091 8 16 9.79086 16 12C16 14.2091 14.2091 16 12 16C9.79086 16 8 14.2091 8 12Z" fill="#4F4B5C"/>
<path fill-rule="evenodd" clip-rule="evenodd" d="M9.71923 2H14.2808L14.9185 4.55081C15.0143 4.58876 15.1089 4.62844 15.2024 4.66973L17.4583 3.31619L20.6838 6.54164L19.3302 8.79766C19.3715 8.89111 19.4112 8.98573 19.4491 9.08151L22 9.71924V14.2808L19.4492 14.9185C19.4112 15.0143 19.3716 15.1089 19.3303 15.2024L20.6838 17.4583L17.4583 20.6838L15.2023 19.3303C15.1089 19.3716 15.0143 19.4112 14.9185 19.4492L14.2808 22H9.71924L9.08152 19.4492C8.98574 19.4112 8.89112 19.3716 8.79767 19.3303L6.5417 20.6838L3.31618 17.4583L4.66975 15.2023C4.62846 15.1089 4.58878 15.0143 4.55083 14.9185L2 14.2808V9.71924L4.55085 9.08151C4.58881 8.98573 4.6285 8.89111 4.66979 8.79766L3.31616 6.54164L6.5417 3.31619L8.79764 4.66973C8.8911 4.62844 8.98573 4.58876 9.08151 4.55081L9.71923 2ZM11.2808 4L10.7552 6.10213L10.218 6.26892C9.87259 6.37619 9.53733 6.51855 9.21194 6.68986L8.71407 6.95197L6.85172 5.83457L5.83458 6.85168L6.95198 8.714L6.68997 9.21184C6.5186 9.53746 6.37614 9.87274 6.26892 10.2181L6.10213 10.7552L4 11.2808V12.7192L6.10213 13.2448L6.26892 13.782C6.37617 14.1274 6.51858 14.4626 6.68991 14.7882L6.95192 15.286L5.83458 17.1483L6.85174 18.1654L8.71401 17.0481L9.21183 17.3101C9.53738 17.4814 9.87266 17.6239 10.2181 17.7311L10.7552 17.8979L11.2808 20H12.7192L13.2448 17.8979L13.782 17.7311C14.1273 17.6239 14.4626 17.4814 14.7882 17.3101L15.286 17.0481L17.1483 18.1654L18.1654 17.1483L17.0481 15.286L17.3101 14.7882C17.4814 14.4626 17.6239 14.1274 17.7311 13.782L17.8979 13.2448L20 12.7192V11.2808L17.8979 10.7552L17.7311 10.2181C17.6239 9.87275 17.4814 9.53746 17.31 9.21184L17.048 8.714L18.1654 6.85168L17.1483 5.83457L15.2859 6.95197L14.7881 6.68986C14.4627 6.51855 14.1274 6.37619 13.782 6.26892L13.2448 6.10213L12.7192 4H11.2808Z" fill="#4F4B5C"/>
</g>
</g>
</svg>
