<svg width="24" height="24" viewBox="0 0 24 24" fill="none" xmlns="http://www.w3.org/2000/svg">
<g id="icon / swap_horizontal">
<g id="Vector">
<path fill-rule="evenodd" clip-rule="evenodd" d="M3 16C3 13.2386 5.23858 11 8 11C10.7614 11 13 13.2386 13 16C13 18.7614 10.7614 21 8 21C5.23858 21 3 18.7614 3 16ZM8 13C6.34315 13 5 14.3431 5 16C5 17.6569 6.34315 19 8 19C9.65686 19 11 17.6569 11 16C11 14.3431 9.65686 13 8 13Z" fill="#4F4B5C"/>
<path fill-rule="evenodd" clip-rule="evenodd" d="M11 8C11 5.23858 13.2386 3 16 3C18.7614 3 21 5.23858 21 8C21 10.7614 18.7614 13 16 13C13.2386 13 11 10.7614 11 8ZM16 5C14.3431 5 13 6.34315 13 8C13 9.65685 14.3431 11 16 11C17.6569 11 19 9.65685 19 8C19 6.34315 17.6569 5 16 5Z" fill="#4F4B5C"/>
<path fill-rule="evenodd" clip-rule="evenodd" d="M3 11.8685L3 8C3 5.23858 5.23858 3 8 3L10 3L10 5L8 5C6.34315 5 5 6.34315 5 8V8.13148L6.4453 7.16795L7.5547 8.83205L3 11.8685Z" fill="#4F4B5C"/>
<path fill-rule="evenodd" clip-rule="evenodd" d="M21 12.1315V16C21 18.7614 18.7614 21 16 21H14V19H16C17.6569 19 19 17.6569 19 16V15.8685L17.5547 16.8321L16.4453 15.1679L21 12.1315Z" fill="#4F4B5C"/>
</g>
</g>
</svg>
