<svg width="24" height="24" viewBox="0 0 24 24" fill="none" xmlns="http://www.w3.org/2000/svg">
<g id="icon / swap_fill">
<path id="Union" fill-rule="evenodd" clip-rule="evenodd" d="M16 3C13.2386 3 11 5.23858 11 8C11 10.7614 13.2386 13 16 13C18.7614 13 21 10.7614 21 8C21 5.23858 18.7614 3 16 3ZM3 8.00001V11.8685L7.5547 8.83206L6.4453 7.16796L5 8.1315V8.00001C5 6.34316 6.34315 5.00001 8 5.00001L10 5.00001L10 3.00001L8 3.00001C5.23858 3.00001 3 5.23859 3 8.00001ZM3 16C3 13.2386 5.23858 11 8 11C10.7614 11 13 13.2386 13 16C13 18.7614 10.7614 21 8 21C5.23858 21 3 18.7614 3 16ZM8 13C6.34315 13 5 14.3431 5 16C5 17.6569 6.34315 19 8 19C9.65685 19 11 17.6569 11 16C11 14.3431 9.65685 13 8 13ZM6 16C6 14.8954 6.89543 14 8 14C9.10457 14 10 14.8954 10 16C10 17.1046 9.10457 18 8 18C6.89543 18 6 17.1046 6 16ZM21 12.1315V16C21 18.7614 18.7614 21 16 21H14V19H16C17.6569 19 19 17.6568 19 16V15.8685L17.5547 16.832L16.4453 15.1679L21 12.1315Z" fill="#4F4B5C"/>
</g>
</svg>
