<svg width="24" height="24" viewBox="0 0 24 24" fill="none" xmlns="http://www.w3.org/2000/svg">
<g id="icon / token">
<g id="Union">
<path d="M17 9L15 7L13 9L15 11L17 9Z" fill="#4F4B5C"/>
<path fill-rule="evenodd" clip-rule="evenodd" d="M9 9C9 5.68629 11.6863 3 15 3C18.3137 3 21 5.68629 21 9C21 12.3137 18.3137 15 15 15C11.6863 15 9 12.3137 9 9ZM15 5C12.7909 5 11 6.79086 11 9C11 11.2091 12.7909 13 15 13C17.2091 13 19 11.2091 19 9C19 6.79086 17.2091 5 15 5Z" fill="#4F4B5C"/>
<path d="M7.00705 9.33893C4.67298 10.1606 3 12.3849 3 15C3 18.3137 5.68629 21 9 21C11.6151 21 13.8394 19.327 14.6611 16.993C13.9624 16.9638 13.287 16.8451 12.6458 16.648C12.0178 18.035 10.6216 19 9 19C6.79086 19 5 17.2091 5 15C5 13.3784 5.96497 11.9822 7.352 11.3542C7.15488 10.713 7.03617 10.0376 7.00705 9.33893Z" fill="#4F4B5C"/>
<path d="M8.43173 13.5683L7 15L9 17L10.4317 15.5683C9.65261 15.0254 8.97463 14.3474 8.43173 13.5683Z" fill="#4F4B5C"/>
</g>
</g>
</svg>
