<svg width="24" height="24" viewBox="0 0 24 24" fill="none" xmlns="http://www.w3.org/2000/svg">
<g id="select_token=1inch" clip-path="url(#clip0_353_17773)">
<g id="1inch">
<path id="Vector" d="M24 12C24 18.6274 18.6274 24 12 24C5.37259 24 0 18.6274 0 12C0 5.37258 5.37259 0 12 0C18.6274 0 24 5.37258 24 12Z" fill="#0C192B" stroke="black" stroke-opacity="0.08"/>
<path id="Vector_2" d="M7.76202 13.3705L8.29114 9.39498L3.70166 6.20893L7.89501 7.62935L8.88534 6.1099L12.5015 3.86609L20.4722 8.25751L20.8853 14.9578L17.3343 19.8925L14.5274 20.3226L15.979 17.6657V15.1078L14.9235 13.1101L13.8512 12.3999L12.2015 14.1005V15.9L10.9141 17.1054L9.27865 17.3035L8.55429 17.7138L7.36589 17.3346L6.87072 15.552L7.76202 14.2985V13.3705Z" fill="white"/>
<path id="Vector_3" d="M15.0905 6.17491C14.2162 5.99382 13.2598 6.04192 13.2598 6.04192C13.2598 6.04192 12.9457 7.49347 10.999 7.87545C11.0131 7.87545 13.571 8.74978 15.0905 6.17491Z" fill="#94A6C3"/>
<path id="Vector_4" d="M15.8828 19.3463C16.9382 18.5201 17.7305 17.3826 18.0955 16.0951C18.1125 16.047 18.2596 15.9622 18.3586 15.8971C18.5228 15.798 18.6897 15.716 18.7208 15.583C18.7859 15.2039 18.8199 14.8077 18.8199 14.4116C18.8199 14.2644 18.6699 14.1145 18.5228 13.9673C18.4067 13.8683 18.2907 13.7523 18.2907 13.6702C18.1266 12.1678 17.4334 10.7643 16.327 9.74287L16.211 9.85888C17.2834 10.8662 17.9767 12.2357 18.1266 13.6872C18.1436 13.8202 18.2738 13.9504 18.4067 14.0834C18.5228 14.1824 18.6557 14.3324 18.6557 14.3974C18.6557 14.7766 18.6218 15.1557 18.5567 15.5349C18.5397 15.6 18.3926 15.6679 18.2766 15.733C18.1125 15.815 17.9625 15.8971 17.9314 16.0301C17.5352 17.4335 16.627 18.6559 15.4216 19.4481C15.6366 18.9869 16.3129 17.4844 16.6751 16.7233L16.61 14.2814L14.5133 12.2527L13.3249 12.4168L12.0205 14.5304C12.0205 14.5304 12.6317 15.3057 11.7715 16.214C10.9311 17.1053 10.269 17.3034 10.269 17.3034L9.65786 16.9723C9.83895 16.7403 10.204 16.3951 10.4841 16.1631C10.9623 15.7669 11.4405 15.733 11.4405 15.3057C11.4603 14.4116 10.5011 14.6578 10.5011 14.6578L10.153 14.9888L10.0059 16.2112L9.28153 17.1194L9.19948 17.1025L8.01108 16.8393C8.01108 16.8393 8.73827 16.4602 8.85428 16.0301C8.97029 15.617 8.62225 14.2475 8.60528 14.1654C8.62225 14.1824 8.95331 14.4625 9.10044 14.9237C9.36359 14.1965 9.71162 13.5033 9.81065 13.4382C9.90969 13.3731 11.2452 12.6629 11.2452 12.6629L10.801 13.8344L11.132 13.6533L11.9243 11.7066C11.9243 11.7066 12.6996 11.3274 13.2768 11.3274C14.3153 11.3104 15.8517 10.04 15.1585 7.76221C15.3565 7.84426 18.7887 9.56178 19.3829 12.9289C19.8272 15.5179 18.3586 17.9428 15.8828 19.3463Z" fill="#94A6C3"/>
<path id="Vector_5" d="M11.9554 6.53701C12.3346 6.08994 12.1874 5.43066 12.1874 5.43066L11.0811 7.06613C11.0641 7.06613 11.4744 7.0831 11.9554 6.53701Z" fill="#1B314F"/>
<path id="Vector_6" d="M8.24027 15.4671L8.37326 14.8079C8.37326 14.8079 7.82716 15.7642 7.77906 15.8972C7.72813 16.0472 7.81301 16.3103 8.02523 16.2934C8.24027 16.2764 8.50342 15.9623 8.50342 15.7331C8.50342 15.436 8.24027 15.4671 8.24027 15.4671Z" fill="#1B314F"/>
<path id="Vector_7" d="M18.0445 4.96963C18.0445 4.96963 18.8707 5.00359 19.7281 5.10262C17.7955 3.58317 15.9648 3.13893 14.4793 3.13893C12.4336 3.13893 11.0471 3.98213 10.9622 4.03023L11.6074 3.00595C11.6074 3.00595 9.0325 2.75695 8.12422 5.48178C7.8922 4.90455 7.67999 4.06136 7.67999 4.06136C7.67999 4.06136 6.34162 5.23561 6.96978 7.18232C5.43335 6.62207 3.24047 5.84396 3.15558 5.82981C3.03957 5.81283 3.00562 5.86376 3.00562 5.86376C3.00562 5.86376 2.97166 5.91186 3.0707 5.99675C3.25462 6.14106 6.72078 8.70177 7.48192 9.19694C7.31781 9.79114 7.31781 10.0713 7.48192 10.3514C7.71394 10.7305 7.72809 10.9286 7.69697 11.2087C7.66301 11.4889 7.36591 13.9166 7.30083 14.2137C7.23575 14.5108 6.54252 15.5662 6.57365 15.8803C6.6076 16.1943 7.03486 17.5299 7.41684 17.6798C7.69697 17.7789 8.3902 17.9939 8.85141 17.9939C9.01552 17.9939 9.16549 17.96 9.23057 17.8949C9.51069 17.6487 9.59274 17.5978 9.79081 17.5978C9.80779 17.5978 9.82477 17.5978 9.83891 17.5978C9.92097 17.5978 10.02 17.6148 10.136 17.6148C10.3992 17.6148 10.7472 17.5638 10.9934 17.3346C11.3555 16.9725 11.9837 16.4773 12.1818 16.2453C12.4308 15.9312 12.5609 15.5039 12.4958 15.0739C12.4449 14.6777 12.6599 14.3297 12.9089 13.9845C13.223 13.5714 13.8002 12.83 13.8002 12.83C14.9405 13.6846 15.6508 14.989 15.6508 16.4405C15.6508 19.0154 13.4069 21.0951 10.634 21.0951C10.2039 21.0951 9.79364 21.047 9.38053 20.9479C10.651 21.3922 11.7234 21.5421 12.6005 21.5421C14.4652 21.5421 15.4555 20.8659 15.4555 20.8659C15.4555 20.8659 15.1103 21.313 14.5472 21.8223C14.5642 21.8223 14.5642 21.8223 14.5642 21.8223C17.6512 21.3922 19.1537 18.8513 19.1537 18.8513C19.1537 18.8513 19.0377 19.6775 18.8906 20.2377C22.9962 17.1507 22.303 13.2884 22.286 13.1583C22.3199 13.2064 22.733 13.7015 22.9453 13.9675C23.6074 7.16534 18.0445 4.96963 18.0445 4.96963ZM11.7234 15.8322C11.6583 15.9142 11.3782 16.1632 11.1801 16.3443C10.982 16.5254 10.767 16.7065 10.6029 16.8734C10.5378 16.9385 10.4048 16.9725 10.2068 16.9725C10.1417 16.9725 10.0738 16.9725 10.0257 16.9725C9.99171 16.9725 9.96058 16.9725 9.92663 16.9725C9.89267 16.9725 9.8757 16.9725 9.86155 16.9725C9.81062 16.9725 9.76252 16.9725 9.71159 16.9725C9.96058 16.6414 10.6849 15.8831 10.9339 15.719C11.231 15.5209 11.381 15.3229 11.1971 14.9777C11.016 14.6296 10.5378 14.7145 10.5378 14.7145C10.5378 14.7145 10.8179 14.5985 11.0669 14.5985C10.7528 14.5164 10.3567 14.5985 10.1756 14.7796C9.97756 14.9607 10.0115 15.6058 9.92946 16.0161C9.8474 16.4462 9.56728 16.6612 9.13719 17.0574C8.90517 17.2724 8.74106 17.3375 8.60807 17.3375C8.32795 17.2894 7.99689 17.2045 7.76487 17.1224C7.60076 16.9074 7.35176 16.1972 7.28668 15.9001C7.33479 15.736 7.53285 15.3879 7.63189 15.1899C7.82995 14.8107 7.94596 14.5957 7.97992 14.3976C8.045 14.1175 8.26004 12.383 8.3421 11.6586C8.55714 11.9387 8.85424 12.4028 8.78633 12.6999C9.26452 12.0236 8.91932 11.3615 8.75238 11.0984C8.60524 10.8352 8.40718 10.3061 8.57129 9.74587C8.7354 9.18562 9.3296 7.63221 9.3296 7.63221C9.3296 7.63221 9.52767 7.98025 9.80779 7.91234C10.0879 7.84726 12.3487 4.44617 12.3487 4.44617C12.3487 4.44617 12.9599 5.78171 12.3147 6.75789C11.6555 7.73125 11.0103 7.91234 11.0103 7.91234C11.0103 7.91234 11.9186 8.07645 12.759 7.46527C13.1042 8.27452 13.4352 9.11488 13.4522 9.23089C13.4013 9.3469 12.742 10.9314 12.6769 11.0305C12.643 11.0644 12.4138 11.1295 12.2468 11.1635C11.9667 11.2455 11.8026 11.2964 11.7347 11.3445C11.6187 11.4436 11.0896 12.8951 10.8434 13.6053C10.5463 13.6874 10.2492 13.8543 10.0342 14.1826C10.1502 14.1005 10.5123 14.0496 10.7783 14.0184C11.0103 14.0015 11.7177 14.3806 11.9016 15.0908C11.9016 15.1078 11.9016 15.1078 11.9016 15.1248C11.9384 15.3851 11.8564 15.6341 11.7234 15.8322ZM10.1728 16.0302C10.3228 15.8152 10.3058 15.453 10.3228 15.337C10.3397 15.221 10.3709 15.0059 10.5039 14.9748C10.6368 14.9409 10.9509 14.9918 10.9509 15.221C10.9509 15.436 10.7189 15.4841 10.5548 15.6341C10.4359 15.7473 10.2039 15.9963 10.1728 16.0302ZM16.7571 12.8753C16.9212 12.035 16.9382 11.3078 16.8901 10.7136C17.5324 11.5709 17.9285 12.6122 18.0445 13.6846C18.0615 13.8176 18.1917 13.9477 18.3246 14.0807C18.4407 14.1797 18.5736 14.3127 18.5736 14.3948C18.5736 14.7739 18.5397 15.1531 18.4746 15.5351C18.4576 15.5832 18.3105 15.6681 18.1945 15.7331C18.0304 15.8152 17.8804 15.8972 17.8493 16.0302C17.4871 17.3007 16.709 18.424 15.6706 19.2163C17.2042 17.6148 17.9455 14.972 16.7571 12.8753ZM15.7187 19.3634C16.791 18.5372 17.6173 17.3827 17.9794 16.0783C17.9964 16.0302 18.1436 15.9454 18.2426 15.8803C18.4067 15.7982 18.5736 15.6992 18.6048 15.5662C18.6699 15.187 18.7038 14.7909 18.7038 14.3948C18.7038 14.2476 18.5538 14.0977 18.4067 13.9505C18.3247 13.8515 18.1917 13.7355 18.1917 13.6534C18.0587 12.4481 17.5805 11.3106 16.8392 10.3684C16.5081 8.3877 15.1895 7.77652 15.1556 7.75954C15.1895 7.81047 16.0469 9.04698 15.4527 10.4985C14.8415 11.967 13.274 11.7379 13.141 11.752C13.008 11.752 12.4987 12.4113 11.8535 13.6336C11.7715 13.5997 11.4234 13.5176 11.0273 13.5855C11.3244 12.7593 11.7715 11.5879 11.8535 11.4889C11.8875 11.4549 12.1337 11.3898 12.3006 11.3417C12.6147 11.2597 12.7618 11.2087 12.8127 11.1437C12.8467 11.0927 13.0108 10.7136 13.1749 10.3174C13.3249 10.3174 13.704 10.2835 13.7352 10.2665C13.7691 10.2325 14.0832 9.42613 14.0832 9.3271C14.0832 9.24504 13.4381 7.64353 13.1919 7.03236C13.3079 6.89937 13.4239 6.73526 13.5371 6.55417C16.9212 6.91917 19.564 9.79114 19.564 13.2715C19.564 15.9454 17.9964 18.274 15.7187 19.3634Z" fill="#1B314F"/>
<path id="Vector_8" d="M11.3272 10.4504C11.6413 10.0883 11.4772 9.41201 10.8971 9.296C11.0471 8.9508 11.2593 8.25757 11.2593 8.25757C11.2593 8.25757 9.57575 10.8975 9.42861 10.9484C9.27865 10.9994 9.13151 10.4193 9.13151 10.4193C8.81744 11.6247 9.66064 11.7888 9.75967 11.4097C10.2209 11.2908 11.0131 10.7956 11.3272 10.4504Z" fill="#1B314F"/>
<path id="Vector_9" d="M9.88989 11.0929L10.7472 9.62439C10.7472 9.62439 11.2424 9.87339 10.9934 10.2695C10.6822 10.7307 9.88989 11.0929 9.88989 11.0929Z" fill="#FFD923"/>
<path id="Vector_10" d="M20.5034 17.8949C20.2544 18.2259 19.9743 18.5711 19.646 18.9022C21.7738 14.8079 19.7451 11.0616 19.663 10.9144C19.813 11.0644 19.9601 11.2285 20.0931 11.3756C21.7257 13.1894 21.9238 15.9142 20.5034 17.8949Z" fill="#D82122"/>
<path id="Vector_11" d="M22.4841 12.6291C21.7399 10.6315 20.6845 8.93095 18.3586 7.39735C16.1148 5.91185 13.7041 6.02786 13.5711 6.04484C13.5541 6.04484 13.5371 6.04484 13.5371 6.04484C13.6192 6.01089 13.7012 5.99391 13.7833 5.97976C14.2954 5.81565 14.9547 5.68266 15.6168 5.60061C17.3683 5.34878 19.1339 5.94298 20.3393 7.21626C20.3563 7.23324 20.3563 7.23324 20.3732 7.25022C21.7427 8.70176 22.4529 10.5155 22.4841 12.6291Z" fill="#D82122"/>
<path id="Vector_12" d="M17.8295 4.45743C15.3706 3.99622 13.7861 4.22541 12.6458 4.6555C12.6119 4.52251 12.4958 4.25937 12.3968 4.04432C12.0544 4.45743 11.6894 4.9526 11.4602 5.26668C10.8321 5.69676 10.5689 6.10987 10.5689 6.10987C10.9311 4.87054 11.9894 3.94812 13.2768 3.7161C13.639 3.65102 14.0351 3.61707 14.4652 3.61707C15.6027 3.63404 16.7401 3.91417 17.8295 4.45743Z" fill="#D82122"/>
<path id="Vector_13" d="M8.73544 7.62645C6.80571 7.56137 7.44801 5.31473 7.48196 5.18457C7.48196 5.20155 7.61212 6.95019 8.73544 7.62645Z" fill="#D82122"/>
<path id="Vector_14" d="M10.634 3.58313C9.14849 4.47443 9.44559 6.60223 9.44559 6.60223C8.02517 4.4433 10.518 3.63406 10.634 3.58313Z" fill="#D82122"/>
<path id="Vector_15" d="M8.19213 8.2208C8.29116 8.30285 8.39019 8.45282 8.27418 8.66786C8.2091 8.78387 8.11007 8.7669 7.96011 8.70182C7.76204 8.60278 6.57364 7.90955 5.50125 7.19934C6.7236 7.62943 7.96011 8.09064 8.15817 8.18967C8.15817 8.18967 8.17515 8.20665 8.19213 8.2208Z" fill="white"/>
</g>
</g>
<defs>
<clipPath id="clip0_353_17773">
<rect width="24" height="24" fill="white"/>
</clipPath>
</defs>
</svg>
