<svg width="24" height="24" viewBox="0 0 24 24" fill="none" xmlns="http://www.w3.org/2000/svg">
<g id="select_token=aave" clip-path="url(#clip0_615_7860)">
<g id="aave">
<path id="Vector" d="M12 24C18.6274 24 24 18.6274 24 12C24 5.37258 18.6274 0 12 0C5.37258 0 0 5.37258 0 12C0 18.6274 5.37258 24 12 24Z" fill="url(#paint0_linear_615_7860)"/>
<path id="Vector_2" d="M17.5712 16.5649L13.5134 6.75464C13.2846 6.24742 12.9444 6 12.4959 6H12.1371C11.6887 6 11.3485 6.24742 11.1196 6.75464L9.35361 11.0289H8.01753C7.61856 11.032 7.29381 11.3536 7.29072 11.7557V11.7649C7.29381 12.1639 7.61856 12.4887 8.01753 12.4917H8.73505L7.04948 16.5649C7.01856 16.6546 7 16.7474 7 16.8433C7 17.0722 7.07113 17.2515 7.19794 17.3907C7.32474 17.5299 7.50722 17.5979 7.73608 17.5979C7.88763 17.5948 8.03299 17.5485 8.15361 17.4588C8.2835 17.3691 8.3732 17.2392 8.44433 17.0907L10.3 12.4887H11.5866C11.9856 12.4856 12.3103 12.1639 12.3134 11.7619V11.7433C12.3103 11.3443 11.9856 11.0196 11.5866 11.0165H10.9L12.3165 7.48763L16.1763 17.0876C16.2474 17.2361 16.3371 17.366 16.467 17.4557C16.5876 17.5454 16.7361 17.5918 16.8846 17.5948C17.1134 17.5948 17.2928 17.5268 17.4227 17.3876C17.5526 17.2485 17.6206 17.0691 17.6206 16.8402C17.6237 16.7474 17.6083 16.6515 17.5712 16.5649Z" fill="white"/>
</g>
</g>
<defs>
<linearGradient id="paint0_linear_615_7860" x1="20.947" y1="4.47174" x2="3.09103" y2="19.4957" gradientUnits="userSpaceOnUse">
<stop stop-color="#B6509E"/>
<stop offset="1" stop-color="#2EBAC6"/>
</linearGradient>
<clipPath id="clip0_615_7860">
<rect width="24" height="24" fill="white"/>
</clipPath>
</defs>
</svg>
