<svg width="24" height="24" viewBox="0 0 24 24" fill="none" xmlns="http://www.w3.org/2000/svg">
<g id="select_token=ada" clip-path="url(#clip0_262_15130)">
<g id="ada">
<path id="Vector" d="M12 0C18.6265 0 24 5.37347 24 12C24 18.6265 18.6265 24 12 24C5.37347 24 0 18.6265 0 12C0 5.37347 5.37347 0 12 0Z" fill="#0033AD"/>
<path id="Union" fill-rule="evenodd" clip-rule="evenodd" d="M11.957 5.44173C12.2046 5.45436 12.4143 5.26489 12.432 5.01731C12.4497 4.76973 12.2552 4.56004 12.0076 4.54236C11.76 4.52973 11.5503 4.71415 11.5326 4.96173C11.52 5.21183 11.7095 5.42404 11.957 5.44173ZM16.1558 5.50232C16.0497 5.66653 15.8324 5.71453 15.6682 5.6059C15.5065 5.49726 15.4585 5.27748 15.5646 5.11326C15.6707 4.95411 15.888 4.90611 16.0522 5.01474C16.2164 5.12084 16.2644 5.33811 16.1558 5.50232ZM8.26864 5.63873C8.44043 5.55283 8.51117 5.33557 8.42527 5.16378C8.33938 4.99199 8.12211 4.92125 7.95032 5.00715C7.77853 5.09304 7.7078 5.30525 7.79369 5.47957C7.87959 5.65641 8.0918 5.72967 8.26864 5.63873ZM9.36506 13.1293C8.76379 13.0965 8.30148 12.5811 8.33685 11.9798C8.36716 11.3988 8.84716 10.944 9.42569 10.9466C10.032 10.9415 10.5196 11.4291 10.5196 12.0354C10.5246 12.6417 10.0371 13.1293 9.43074 13.1293H9.36506ZM3.89306 12.0304C3.90064 11.8359 4.0699 11.6843 4.26443 11.6969C4.45895 11.7095 4.61053 11.8737 4.5979 12.0683C4.58527 12.2628 4.42106 12.4144 4.22653 12.4017C4.03201 12.3942 3.88548 12.2249 3.89306 12.0304ZM9.61769 6.84124C9.75158 7.10903 9.64295 7.43745 9.37516 7.57135C9.10737 7.70524 8.77895 7.59914 8.64506 7.32882C8.51116 7.06103 8.61979 6.73261 8.88758 6.59871C9.15537 6.46482 9.48379 6.57345 9.61769 6.84124ZM5.64885 8.9002C5.856 9.03409 6.1339 8.97851 6.27032 8.77135C6.40422 8.5642 6.34864 8.2863 6.14148 8.14988C5.93432 8.01598 5.65643 8.07156 5.52 8.27872C5.38106 8.48588 5.43916 8.7663 5.64885 8.9002ZM5.73474 12.0177C5.75242 11.7145 6.00758 11.4846 6.31073 11.5023C6.61137 11.52 6.84126 11.7802 6.8261 12.0783C6.80842 12.3815 6.55326 12.6114 6.2501 12.5937C5.94695 12.576 5.71705 12.3208 5.73474 12.0177ZM5.70695 15.1654C5.48716 15.2791 5.39621 15.5469 5.50737 15.7717C5.62106 15.9915 5.88885 16.0825 6.11369 15.9713C6.33348 15.8576 6.42443 15.5898 6.31327 15.365C6.20211 15.1452 5.92927 15.0543 5.70695 15.1654ZM8.71327 10.1887C8.5238 10.4893 8.12464 10.5702 7.82653 10.3756C7.52843 10.1811 7.44759 9.78194 7.63959 9.48889C7.82906 9.18826 8.22822 9.10742 8.52632 9.30194C8.82695 9.49142 8.9078 9.89057 8.71327 10.1887ZM14.5516 7.52844C14.8017 7.69265 15.1427 7.62444 15.3095 7.37181C15.4737 7.1217 15.4055 6.78065 15.1528 6.61391C14.9027 6.4497 14.5617 6.51791 14.3949 6.77054C14.2282 7.02823 14.2964 7.36423 14.5516 7.52844ZM14.6324 10.9365C14.0312 10.9011 13.5133 11.3634 13.483 11.9647C13.4476 12.5659 13.9099 13.0838 14.5112 13.1142H14.5718C15.1731 13.1142 15.6606 12.6266 15.6606 12.0203C15.6657 11.4468 15.2135 10.9668 14.6324 10.9365ZM10.7116 10.8985C10.2973 10.8985 9.92085 10.6635 9.7339 10.2972C9.46106 9.76164 9.67832 9.10227 10.219 8.8269C10.7545 8.55406 11.4114 8.77132 11.6842 9.31196C11.7625 9.46606 11.8004 9.63532 11.8004 9.80459C11.8004 10.4109 11.3128 10.8985 10.7116 10.8985ZM18.2905 8.90019C18.5103 8.7865 18.5987 8.51619 18.4851 8.29387C18.3739 8.07408 18.1011 7.98566 17.8787 8.09935C17.6589 8.21303 17.5705 8.48082 17.6792 8.70061C17.7979 8.9204 18.0682 9.01135 18.2905 8.90019ZM15.2387 10.1078C15.0796 9.79204 15.2084 9.40552 15.5242 9.24636C15.84 9.08973 16.224 9.21605 16.3857 9.53183C16.5448 9.84762 16.416 10.2342 16.1002 10.3933C15.7844 10.5525 15.3979 10.4236 15.2387 10.1078ZM12.6265 7.6573C12.6088 8.01351 12.3057 8.28635 11.952 8.26361C11.5983 8.24593 11.3305 7.9453 11.3457 7.58909C11.3634 7.23287 11.6665 6.96003 12.0202 6.98277C12.3764 7.00045 12.6493 7.30361 12.6265 7.6573ZM8.47579 14.8193C8.79158 14.6602 8.92043 14.2737 8.76127 13.9579C8.60211 13.6421 8.21558 13.5132 7.8998 13.6724C7.58401 13.8316 7.45516 14.2181 7.61432 14.5339C7.77601 14.8497 8.16001 14.9785 8.47579 14.8193ZM12.6846 10.7115C12.1794 10.3831 12.0404 9.70859 12.3688 9.20332C12.5709 8.89511 12.912 8.71069 13.2808 8.71069C13.4931 8.71069 13.7002 8.77133 13.8771 8.88754C14.3823 9.21596 14.5213 9.89048 14.1928 10.3957C13.8644 10.901 13.1899 11.04 12.6846 10.7115ZM14.2661 13.7684C13.9933 13.2277 13.3364 13.0105 12.8008 13.2833C12.2602 13.5562 12.043 14.213 12.3158 14.7486C12.5886 15.2892 13.2455 15.5065 13.7811 15.2336C14.3166 14.9659 14.539 14.3166 14.2686 13.776C14.2712 13.7734 14.2712 13.7734 14.2661 13.7684ZM15.2867 13.8771C15.4762 13.5764 15.8754 13.4956 16.1735 13.6901C16.4716 13.8847 16.5524 14.2838 16.3604 14.5769C16.1709 14.8775 15.7718 14.9583 15.4737 14.7638C15.173 14.5743 15.0922 14.1752 15.2867 13.8771ZM18.2653 12.053C18.283 11.7499 18.0531 11.4947 17.7499 11.477C17.4467 11.4593 17.1916 11.6892 17.1739 11.9924C17.1562 12.2956 17.3861 12.5507 17.6893 12.5684C17.9899 12.5836 18.2476 12.3511 18.2653 12.053ZM19.4021 11.9974C19.4097 11.8029 19.5789 11.6513 19.7735 11.6639C19.9705 11.6766 20.1171 11.8408 20.1069 12.0353C20.0943 12.2298 19.9301 12.3814 19.7356 12.3688C19.5411 12.3612 19.3945 12.1919 19.4021 11.9974ZM18.3512 15.1655C18.144 15.0316 17.8661 15.0872 17.7297 15.2943C17.5958 15.5015 17.6514 15.7794 17.8585 15.9158C18.0657 16.0497 18.3436 15.9941 18.48 15.787C18.6189 15.5798 18.5608 15.2994 18.3512 15.1655ZM7.84169 18.5583C7.94779 18.3992 8.16506 18.3512 8.32927 18.4598C8.49348 18.5684 8.54148 18.7882 8.42779 18.9474C8.32169 19.1065 8.10442 19.1545 7.94021 19.0459C7.78106 18.9398 7.73306 18.7225 7.84169 18.5583ZM15.7314 18.427C15.5596 18.5129 15.4888 18.7302 15.5747 18.9019C15.6606 19.0737 15.8779 19.1445 16.0497 19.0586C16.2215 18.9727 16.2922 18.7605 16.2063 18.5862C16.1204 18.4093 15.9082 18.336 15.7314 18.427ZM11.3154 13.349C11.8206 13.6825 11.9596 14.357 11.6312 14.8623C11.429 15.173 11.088 15.36 10.7141 15.3549C10.5019 15.3549 10.2947 15.2943 10.1179 15.1781C9.61263 14.8446 9.46863 14.1701 9.8021 13.6648C10.1356 13.1595 10.8101 13.0206 11.3154 13.349ZM9.44842 16.5373C9.19832 16.373 8.85726 16.4413 8.69053 16.6939C8.52632 16.944 8.59453 17.285 8.84716 17.4518C9.09726 17.616 9.43832 17.5478 9.60505 17.2951C9.77432 17.0425 9.70358 16.7015 9.44842 16.5373ZM11.52 19.0484C11.5377 18.8009 11.7474 18.6114 11.995 18.624C12.2425 18.6417 12.432 18.8539 12.4194 19.104C12.4017 19.3516 12.192 19.536 11.9444 19.5234C11.6968 19.5057 11.5023 19.296 11.52 19.0484ZM12 15.8021C11.6463 15.7794 11.3432 16.0522 11.3255 16.4084C11.3027 16.7621 11.5756 17.0653 11.9318 17.0829C12.2855 17.1006 12.5886 16.8328 12.6063 16.4766C12.6265 16.1255 12.3537 15.8198 12 15.8021ZM14.3874 17.2295C14.2484 16.9617 14.3571 16.6333 14.6248 16.4943C14.8977 16.3554 15.2261 16.4665 15.3651 16.7369C15.4989 17.0047 15.3903 17.3331 15.1225 17.467C14.8547 17.6059 14.5263 17.4973 14.3874 17.2295Z" fill="white"/>
</g>
</g>
<defs>
<clipPath id="clip0_262_15130">
<rect width="24" height="24" fill="white"/>
</clipPath>
</defs>
</svg>
