<svg width="24" height="24" viewBox="0 0 24 24" fill="none" xmlns="http://www.w3.org/2000/svg">
<g id="select_token=arbitrum" clip-path="url(#clip0_313_16343)">
<g id="arbitrum">
<path id="Vector" d="M12 24C18.6274 24 24 18.6274 24 12C24 5.37258 18.6274 0 12 0C5.37258 0 0 5.37258 0 12C0 18.6274 5.37258 24 12 24Z" fill="#283141"/>
<path id="Vector_2" d="M12.0959 14.6094L14.537 18.4637L16.7921 17.149L13.5861 12.0657L12.0959 14.6094Z" fill="#2C97E7"/>
<path id="Vector_3" d="M18.8457 15.6028L18.844 14.5495L15.3409 9.06067L14.0413 11.2792L17.423 16.7811L18.6458 16.0683C18.7657 15.9703 18.8383 15.8265 18.8459 15.6714L18.8457 15.6028Z" fill="#2C97E7"/>
<path id="Vector_4" d="M4.16574 15.9661C4.16574 16.3563 4.37358 16.7171 4.71121 16.9127L5.89244 17.5975L11.6385 8.32748L10.6633 8.3016C9.83235 8.28975 8.9373 8.5071 8.52645 9.18165L5.26349 14.2694L4.16574 15.9661Z" fill="white"/>
<path id="Vector_5" d="M14.9549 8.32727L12.3847 8.33665L6.56982 17.9895L8.60227 19.1667L9.15502 18.2237L14.9549 8.32727Z" fill="white"/>
<path id="Vector_6" d="M19.9286 8.31394C19.9071 7.77327 19.6161 7.27825 19.1602 6.99007L12.7705 3.29363C12.3196 3.06522 11.7562 3.06493 11.3045 3.29348C11.2511 3.32058 5.09076 6.91463 5.09076 6.91463C5.0055 6.95578 4.92337 7.00477 4.84613 7.06039C4.43918 7.35379 4.19113 7.80972 4.16565 8.31064V15.9659L5.2634 14.2692L5.25381 8.36239C5.25508 8.34079 5.25778 8.31949 5.26161 8.29849C5.28643 8.15952 5.36357 8.03554 5.4797 7.95177C5.50868 7.93092 11.7743 4.28252 11.7942 4.27251C11.9414 4.19811 12.1286 4.19723 12.2761 4.2702L18.583 7.91959C18.7323 8.01522 18.8258 8.17729 18.8342 8.35452V15.6715C18.8265 15.8267 18.7655 15.9705 18.6456 16.0685L17.4229 16.7812L16.792 17.1491L14.5369 18.4637L12.25 19.7969C12.1268 19.8417 11.9828 19.8391 11.8606 19.7892L9.15487 18.2237L8.6022 19.1667L11.0338 20.575C11.1142 20.6211 11.1858 20.6618 11.2446 20.695C11.3356 20.7463 11.3976 20.7807 11.4196 20.7914C11.5924 20.8758 11.8411 20.925 12.0651 20.925C12.2705 20.925 12.4709 20.887 12.6604 20.8123L19.3029 16.9426C19.6841 16.6455 19.9084 16.1973 19.9286 15.7119V8.31394Z" fill="#8DB4D4"/>
</g>
</g>
<defs>
<clipPath id="clip0_313_16343">
<rect width="24" height="24" fill="white"/>
</clipPath>
</defs>
</svg>
