<svg width="24" height="24" viewBox="0 0 24 24" fill="none" xmlns="http://www.w3.org/2000/svg">
<g id="select_wallet=coinbase">
<g id="coinbase" clip-path="url(#clip0_2173_51147)">
<mask id="mask0_2173_51147" style="mask-type:alpha" maskUnits="userSpaceOnUse" x="2" y="2" width="20" height="20">
<g id="mask0_440_5393">
<path id="Vector" d="M18.6579 2H5.34204C3.49628 2 2 3.49628 2 5.34204V18.6579C2 20.5037 3.49628 22 5.34204 22H18.6579C20.5037 22 22 20.5037 22 18.6579V5.34204C22 3.49628 20.5037 2 18.6579 2Z" fill="white"/>
</g>
</mask>
<g mask="url(#mask0_2173_51147)">
<path id="Vector_2" d="M2 2H22V22.0522H2V2Z" fill="url(#paint0_linear_2173_51147)"/>
<path id="Vector_3" fill-rule="evenodd" clip-rule="evenodd" d="M5.13876 12.0038C5.13876 15.8364 8.2457 18.9433 12.0782 18.9433C15.9108 18.9433 19.0177 15.8364 19.0177 12.0038C19.0177 8.17127 15.9108 5.06433 12.0782 5.06433C8.2457 5.06433 5.13876 8.17127 5.13876 12.0038ZM10.3048 9.76772C10.0493 9.76772 9.8422 9.97487 9.8422 10.2304V13.7772C9.8422 14.0327 10.0493 14.2399 10.3048 14.2399H13.8516C14.1071 14.2399 14.3142 14.0327 14.3142 13.7772V10.2304C14.3142 9.97487 14.1071 9.76772 13.8516 9.76772H10.3048Z" fill="white"/>
</g>
</g>
</g>
<defs>
<linearGradient id="paint0_linear_2173_51147" x1="12" y1="2" x2="12" y2="22.0522" gradientUnits="userSpaceOnUse">
<stop stop-color="#2E66F8"/>
<stop offset="1" stop-color="#124ADB"/>
</linearGradient>
<clipPath id="clip0_2173_51147">
<rect width="20" height="20" fill="white" transform="translate(2 2)"/>
</clipPath>
</defs>
</svg>
