<svg width="24" height="24" viewBox="0 0 24 24" fill="none" xmlns="http://www.w3.org/2000/svg">
<g id="select_token=link" clip-path="url(#clip0_615_7864)">
<g id="link">
<path id="Vector" d="M12 24C18.6274 24 24 18.6274 24 12C24 5.37258 18.6274 0 12 0C5.37258 0 0 5.37258 0 12C0 18.6274 5.37258 24 12 24Z" fill="#375BD2"/>
<path id="Vector_2" d="M12.0018 7.39005L16.0421 9.68676V14.2985L12.013 16.61L7.97273 14.3169V9.7051L12.0018 7.39005ZM12.0018 4L10.5192 4.85118L6.48266 7.16625L5 8.01744V9.71244V14.3206V16.0156L6.48266 16.8595L10.5229 19.1562L12.0055 20L13.4882 19.1488L17.5174 16.8338L19 15.9863V14.2912V9.67942V7.98441L17.5174 7.14057L13.4771 4.84385L11.9945 4H12.0018Z" fill="white"/>
</g>
</g>
<defs>
<clipPath id="clip0_615_7864">
<rect width="24" height="24" fill="white"/>
</clipPath>
</defs>
</svg>
