<svg width="24" height="24" viewBox="0 0 24 24" fill="none" xmlns="http://www.w3.org/2000/svg">
<g id="select_token=weth" clip-path="url(#clip0_314_16448)">
<g id="weth">
<g id="Clip path group">
<mask id="mask0_314_16448" style="mask-type:luminance" maskUnits="userSpaceOnUse" x="0" y="0" width="24" height="24">
<g id="clip-path">
<path id="Rectangle 341" d="M23.8993 0H0V24H23.8993V0Z" fill="white"/>
</g>
</mask>
<g mask="url(#mask0_314_16448)">
<g id="Group 768">
<path id="Path 848" d="M6.56778 24.0002C12.726 24.0002 12.726 23.9083 13.7706 23.5986C15.135 23.1936 9.91751 19.5818 6.56778 19.5818C3.21805 19.5818 0.502258 20.5711 0.502258 21.7912C0.502258 23.0112 3.21696 24.0002 6.56778 24.0002Z" fill="black"/>
<path id="Path 849" d="M20.5517 5.21366L20.835 5.51886L20.5878 5.8534C12.5558 16.7135 7.92875 21.6303 5.96554 20.9712C4.77011 20.5693 3.57088 19.3614 2.37147 17.6072C1.94999 16.9904 1.55405 16.3411 1.19415 15.6952C0.954524 15.2648 0.751664 14.8725 0.646249 14.6516C0.536308 14.4357 0.457054 14.2056 0.410786 13.9678L0.405352 13.9403C0.38724 13.8434 0.379995 13.8135 0.365867 13.7592C-0.185441 11.6816 -0.113088 9.48769 0.573908 7.45095C1.2609 5.41422 2.53216 3.62472 4.2292 2.30552C5.92625 0.986322 7.97403 0.19577 10.1173 0.0324082C12.2606 -0.130954 14.4045 0.340099 16.2819 1.38685L16.3235 1.41293C17.6478 2.33522 19.0572 3.60201 20.5517 5.21366ZM15.77 2.25136C14.0641 1.30717 12.1183 0.885095 10.1745 1.03759C8.23064 1.19009 6.37447 1.91044 4.83665 3.10912C3.29882 4.3078 2.14714 5.93195 1.52473 7.77975C0.902319 9.62754 0.836618 11.6175 1.33579 13.5023C1.35753 13.5842 1.36749 13.6302 1.39013 13.7488L1.39466 13.7733C1.42535 13.9286 1.4785 14.0785 1.55242 14.2185C1.6486 14.4203 1.84222 14.7936 2.07116 15.2054C2.41729 15.8263 2.79747 16.4501 3.20011 17.0397C4.28397 18.6244 5.35822 19.7069 6.28504 20.0183C7.52158 20.4336 12.1758 15.5068 19.5311 5.59203C18.3917 4.35612 17.1317 3.23702 15.77 2.25136Z" fill="black"/>
<path id="Path 850" d="M15.77 2.25123C14.0641 1.30696 12.1182 0.884829 10.1744 1.03731C8.23047 1.18978 6.37425 1.91014 4.83638 3.10885C3.29852 4.30757 2.14682 5.93178 1.52442 7.77964C0.902027 9.62749 0.836376 11.6175 1.33563 13.5024C1.35736 13.5842 1.36733 13.6302 1.38997 13.7489L1.39449 13.7733C1.42501 13.9288 1.47803 14.0791 1.55189 14.2193C1.64807 14.421 1.84169 14.7943 2.07064 15.2062C2.41677 15.8271 2.79695 16.4509 3.19959 17.0405C4.28344 18.6251 5.3577 19.7077 6.28451 20.0191C7.52178 20.4349 12.1754 15.5083 19.5311 5.59281C18.3917 4.35658 17.1318 3.23717 15.77 2.25123Z" fill="#EC1C79"/>
<path id="Path 851" d="M12.9539 23.8995C10.7891 23.8995 8.67284 23.2575 6.87285 22.0548C5.07286 20.8521 3.66993 19.1426 2.84149 17.1426C2.01304 15.1425 1.79628 12.9417 2.21862 10.8185C2.64096 8.69527 3.68342 6.74496 5.21419 5.21419C6.74496 3.68342 8.69527 2.64096 10.8185 2.21862C12.9417 1.79628 15.1425 2.01304 17.1426 2.84149C19.1426 3.66993 20.8521 5.07286 22.0548 6.87285C23.2575 8.67284 23.8995 10.7891 23.8995 12.9539C23.8995 14.3913 23.6164 15.8146 23.0663 17.1426C22.5163 18.4706 21.71 19.6772 20.6936 20.6936C19.6772 21.71 18.4706 22.5163 17.1426 23.0663C15.8146 23.6164 14.3913 23.8995 12.9539 23.8995ZM12.9539 22.8953C14.9201 22.8953 16.8421 22.3122 18.4769 21.2198C20.1117 20.1274 21.3859 18.5748 22.1383 16.7583C22.8907 14.9418 23.0875 12.9429 22.7039 11.0145C22.3203 9.08611 21.3735 7.31477 19.9832 5.92448C18.5928 4.53419 16.8215 3.5874 14.8931 3.20383C12.9647 2.82026 10.9658 3.01714 9.14931 3.76958C7.3328 4.52201 5.7802 5.7962 4.68785 7.43103C3.5955 9.06585 3.01246 10.9879 3.01246 12.9541C3.01251 15.5906 4.0599 18.1192 5.92424 19.9835C7.78857 21.8479 10.3173 22.8953 12.9539 22.8953Z" fill="black"/>
<path id="Path 852" d="M12.9539 22.8954C14.9201 22.8954 16.8421 22.3124 18.4769 21.22C20.1118 20.1277 21.386 18.5751 22.1384 16.7586C22.8908 14.9421 23.0877 12.9432 22.7041 11.0148C22.3206 9.0864 21.3738 7.31504 19.9835 5.92473C18.5932 4.53442 16.8219 3.58759 14.8935 3.20398C12.9651 2.82038 10.9662 3.01722 9.14968 3.76962C7.33316 4.52202 5.78053 5.79619 4.68815 7.43099C3.59577 9.0658 3.0127 10.9878 3.01266 12.954C3.01271 15.5906 4.06011 18.1191 5.92444 19.9835C7.78877 21.8478 10.3173 22.8954 12.9539 22.8954Z" fill="white"/>
<path id="Path 853" fill-rule="evenodd" clip-rule="evenodd" d="M5.51726 14.9905L4.20139 11.026H5.35443L6.04053 13.3035L6.79926 11.0148H7.73804L8.49713 13.3035L9.18324 11.026H10.3138L8.99794 14.9905H8.04776L7.25498 12.7244L6.46744 14.9905H5.51726ZM10.7469 14.9626V11.026H13.913V11.9541H11.8269V12.5502H13.7163V13.4111H11.8269V14.035H13.9409V14.9631L10.7469 14.9626ZM15.4598 14.9626V11.982H14.279V11.026H17.7311V11.982H16.5503V14.9624L15.4598 14.9626ZM18.2094 14.9626V11.026H19.3005V12.4991H20.7006V11.026H21.7921V14.9624H20.7006V13.4667H19.3005V14.9624L18.2094 14.9626Z" fill="black"/>
<path id="Path 854" d="M0.652404 9.84176C0.51898 9.77506 0.417518 9.65809 0.370337 9.51658C0.323156 9.37507 0.334121 9.22061 0.400821 9.08719C0.467521 8.95376 0.584492 8.8523 0.726001 8.80512C0.86751 8.75794 1.02197 8.76891 1.15539 8.83561L2.76179 9.63926C2.82783 9.67226 2.88672 9.71795 2.93511 9.77371C2.98349 9.82947 3.02042 9.89422 3.04378 9.96426C3.06714 10.0343 3.07648 10.1082 3.07126 10.1819C3.06605 10.2555 3.04637 10.3274 3.01337 10.3935C2.98037 10.4595 2.93468 10.5184 2.87892 10.5668C2.82316 10.6152 2.75841 10.6521 2.68837 10.6755C2.61834 10.6988 2.54439 10.7082 2.47075 10.7029C2.3971 10.6977 2.32521 10.678 2.25917 10.645L0.652404 9.84176Z" fill="black"/>
<path id="Path 855" d="M0.467472 12.5062C0.400432 12.4752 0.340138 12.4314 0.290035 12.3772C0.239931 12.323 0.200998 12.2594 0.175458 12.1901C0.149918 12.1209 0.138272 12.0473 0.141185 11.9735C0.144097 11.8997 0.161511 11.8272 0.192433 11.7602C0.223354 11.6932 0.267177 11.6329 0.3214 11.5828C0.375623 11.5327 0.439183 11.4937 0.508453 11.4682C0.577722 11.4426 0.651343 11.431 0.725113 11.4339C0.798883 11.4368 0.871357 11.4542 0.938397 11.4852L2.54516 12.2263C2.67876 12.2899 2.78192 12.4036 2.83227 12.5427C2.88262 12.6819 2.87612 12.8352 2.81417 12.9696C2.75221 13.104 2.6398 13.2085 2.50129 13.2606C2.36279 13.3126 2.20935 13.308 2.07423 13.2477L0.467472 12.5062Z" fill="black"/>
</g>
</g>
</g>
</g>
</g>
<defs>
<clipPath id="clip0_314_16448">
<rect width="24" height="24" fill="white"/>
</clipPath>
</defs>
</svg>
