<svg width="24" height="24" viewBox="0 0 24 24" fill="none" xmlns="http://www.w3.org/2000/svg">
<g id="select_wallet=bitski">
<g id="bitski">
<path id="Vector" d="M3.27893 13.0239L3.8101 12.4928C3.97529 12.3276 4.05239 12.2849 4.14508 12.2568C4.23776 12.2287 4.33255 12.2287 4.42524 12.2568C4.51793 12.2849 4.59503 12.3276 4.76021 12.4928L12.6978 20.4303C12.863 20.5955 12.9057 20.6726 12.9338 20.7653C12.9618 20.858 12.9618 20.9528 12.9338 21.0455C12.9057 21.1382 12.863 21.2153 12.6978 21.3804L12.1666 21.9116C12.0014 22.0768 11.9243 22.1195 11.8317 22.1476C11.7389 22.1757 11.6442 22.1757 11.5515 22.1476C11.4588 22.1195 11.3817 22.0768 11.2165 21.9116L3.27893 13.974C3.11375 13.8088 3.07105 13.7317 3.04295 13.6391C3.01486 13.5464 3.01486 13.4516 3.04295 13.3589C3.07105 13.2662 3.11375 13.1891 3.27893 13.0239Z" fill="#4100EA"/>
<path id="Vector_2" d="M3.27893 13.0239L3.8101 12.4928C3.97529 12.3276 4.05239 12.2849 4.14508 12.2568C4.23776 12.2287 4.33255 12.2287 4.42524 12.2568C4.51793 12.2849 4.59503 12.3276 4.76021 12.4928L12.6978 20.4303C12.863 20.5955 12.9057 20.6726 12.9338 20.7653C12.9618 20.858 12.9618 20.9528 12.9338 21.0455C12.9057 21.1382 12.863 21.2153 12.6978 21.3804L12.1666 21.9116C12.0014 22.0768 11.9243 22.1195 11.8317 22.1476C11.7389 22.1757 11.6442 22.1757 11.5515 22.1476C11.4588 22.1195 11.3817 22.0768 11.2165 21.9116L3.27893 13.974C3.11375 13.8088 3.07105 13.7317 3.04295 13.6391C3.01486 13.5464 3.01486 13.4516 3.04295 13.3589C3.07105 13.2662 3.11375 13.1891 3.27893 13.0239Z" fill="url(#paint0_linear_2173_51146)"/>
<path id="Vector_3" d="M2.20459 6.60178L5.99074 2.81561C8.49709 0.309288 11.3589 0.504818 13.5986 2.74451C13.883 3.02892 14.2385 3.52663 14.4518 3.84659C14.5407 3.97101 14.594 4.05989 14.6651 4.13099C14.8073 4.27319 14.9495 4.30875 15.2517 4.21987C17.1181 3.70438 18.7535 4.27319 20.3177 5.83744C22.504 8.02379 22.7351 10.9567 19.9622 13.7297L14.6473 19.0445C14.363 19.3289 14.1319 19.3111 13.8475 19.0268L2.22237 7.40166C1.93796 7.11723 1.92019 6.88615 2.20459 6.60178ZM9.97244 8.6104L10.8789 7.70384C11.3411 7.24168 11.4122 6.60178 10.8612 6.05075C10.3279 5.51747 9.67026 5.57079 9.2081 6.03294L8.30154 6.9395C8.01712 7.22392 8.03493 7.455 8.3193 7.73937L9.17252 8.59258C9.45694 8.87701 9.68802 8.89477 9.97244 8.6104ZM14.3096 12.9476L16.6915 10.5657C17.3848 9.87243 17.527 9.23253 16.9404 8.64593C16.3716 8.07713 15.7139 8.20153 15.0206 8.89477L12.6387 11.2767C12.3543 11.5611 12.3721 11.7922 12.6565 12.0766L13.5097 12.9298C13.7941 13.2142 14.0252 13.232 14.3096 12.9476Z" fill="#2926CF"/>
</g>
</g>
<defs>
<linearGradient id="paint0_linear_2173_51146" x1="7.90924" y1="17.0855" x2="7.85285" y2="17.1601" gradientUnits="userSpaceOnUse">
<stop stop-color="#CF0BC3"/>
<stop offset="1" stop-color="#FF3568"/>
</linearGradient>
</defs>
</svg>
