<svg width="24" height="24" viewBox="0 0 24 24" fill="none" xmlns="http://www.w3.org/2000/svg">
<g id="select_network=ethereum" clip-path="url(#clip0_2175_78063)">
<g id="ethereum">
<path id="Vector" d="M0.482671 15.3686C-0.18366 13.0908 -0.159594 10.6667 0.551824 8.40259C1.26324 6.13852 2.63006 4.13623 4.47946 2.6489C6.32885 1.16159 8.57775 0.256036 10.9418 0.0467558C13.3058 -0.162524 15.6788 0.333872 17.7608 1.47316C19.8427 2.61246 21.54 4.3435 22.6382 6.44738C23.7363 8.55126 24.1859 10.9335 23.9301 13.2929C23.6743 15.6523 22.7246 17.8828 21.2011 19.7025C19.6776 21.5222 17.6487 22.8492 15.371 23.5159C13.8584 23.9591 12.2734 24.0999 10.7064 23.9303C9.13936 23.7607 7.62114 23.2839 6.23848 22.5273C4.85582 21.7707 3.63582 20.749 2.6482 19.5207C1.66059 18.2923 0.924727 16.8814 0.482671 15.3686Z" fill="url(#paint0_linear_2175_78063)"/>
<path id="Vector_2" d="M11.7691 14.918L16.4143 12.8516L12.0668 4.65771L7.25464 12.5858L11.7691 14.918Z" fill="white"/>
<path id="Vector_3" d="M12.0668 4.65771L11.9551 14.9235L7.25458 12.5859L12.0668 4.65771Z" fill="#E7E9EE"/>
<path id="Vector_4" d="M11.928 20.0847L16.7596 13.5947L11.928 15.7532L7.23846 13.3213L11.928 20.0847Z" fill="white"/>
<path id="Vector_5" d="M11.8964 10.5216L16.4156 12.8513L11.7703 14.9176L7.2558 12.5855L11.8964 10.5216Z" fill="#AEAEAE" fill-opacity="0.7"/>
<path id="Vector_6" d="M7.2558 12.5855L11.8964 10.5216L11.7703 14.9176L7.2558 12.5855Z" fill="#939393"/>
<path id="Vector_7" d="M7.22662 13.3362L11.9162 15.7681V20.0848L7.22662 13.3362Z" fill="#E7E9EE"/>
</g>
</g>
<defs>
<linearGradient id="paint0_linear_2175_78063" x1="24.6089" y1="24.5001" x2="-5.76255" y2="-7.29326" gradientUnits="userSpaceOnUse">
<stop stop-color="#242424"/>
<stop offset="1" stop-color="#9B9B9B" stop-opacity="0.94"/>
</linearGradient>
<clipPath id="clip0_2175_78063">
<rect width="24" height="24" fill="white"/>
</clipPath>
</defs>
</svg>
