<svg width="24" height="24" viewBox="0 0 24 24" fill="none" xmlns="http://www.w3.org/2000/svg">
<g id="select_network=optimism" clip-path="url(#clip0_133_15590)">
<g id="ethereum">
<path id="Vector" d="M12 24C18.6274 24 24 18.6274 24 12C24 5.37258 18.6274 0 12 0C5.37258 0 0 5.37258 0 12C0 18.6274 5.37258 24 12 24Z" fill="#FF0420"/>
<path id="Vector_2" d="M8.50086 15.1869C7.78566 15.1869 7.20006 15.0189 6.74406 14.6829C6.29286 14.3421 6.06726 13.8525 6.06726 13.2237C6.06726 13.0893 6.08166 12.9309 6.11046 12.7389C6.18726 12.3069 6.29766 11.7885 6.44166 11.1789C6.84966 9.52775 7.90566 8.70215 9.60486 8.70215C10.0657 8.70215 10.4833 8.77895 10.8481 8.93735C11.2129 9.08615 11.5009 9.31655 11.7121 9.62375C11.9233 9.92615 12.0289 10.2861 12.0289 10.7037C12.0289 10.8285 12.0145 10.9869 11.9857 11.1789C11.8945 11.7117 11.7889 12.2349 11.6593 12.7389C11.4481 13.5597 11.0881 14.1789 10.5697 14.5869C10.0561 14.9901 9.36486 15.1869 8.50086 15.1869ZM8.63046 13.8909C8.96646 13.8909 9.24966 13.7901 9.48486 13.5933C9.72486 13.3965 9.89766 13.0941 9.99846 12.6813C10.1377 12.1149 10.2433 11.6253 10.3153 11.2029C10.3393 11.0781 10.3537 10.9485 10.3537 10.8141C10.3537 10.2669 10.0705 9.99335 9.49926 9.99335C9.16326 9.99335 8.87526 10.0941 8.63526 10.2909C8.40006 10.4877 8.23206 10.7901 8.13126 11.2029C8.02086 11.6061 7.91526 12.0957 7.80486 12.6813C7.78086 12.8013 7.76646 12.9261 7.76646 13.0605C7.76166 13.6173 8.05446 13.8909 8.63046 13.8909Z" fill="white"/>
<path id="Vector_3" d="M12.4464 15.101C12.3792 15.101 12.3312 15.0818 12.2928 15.0386C12.264 14.9906 12.2544 14.9378 12.264 14.8754L13.5072 9.01942C13.5168 8.95222 13.5504 8.89942 13.608 8.85622C13.6608 8.81302 13.7184 8.79382 13.7808 8.79382H16.176C16.8432 8.79382 17.376 8.93302 17.7792 9.20662C18.1872 9.48502 18.3936 9.88342 18.3936 10.4066C18.3936 10.5554 18.3744 10.7138 18.3408 10.877C18.192 11.5682 17.8896 12.077 17.4288 12.4082C16.9776 12.7394 16.3584 12.9026 15.5712 12.9026H14.3568L13.944 14.8754C13.9296 14.9426 13.9008 14.9954 13.8432 15.0386C13.7904 15.0818 13.7328 15.101 13.6704 15.101H12.4464ZM15.6336 11.6594C15.888 11.6594 16.104 11.5922 16.2912 11.453C16.4832 11.3138 16.608 11.117 16.6704 10.8578C16.6896 10.757 16.6992 10.6658 16.6992 10.589C16.6992 10.4162 16.6464 10.2818 16.5456 10.1906C16.4448 10.0946 16.2672 10.0466 16.0224 10.0466H14.9424L14.6016 11.6594H15.6336Z" fill="white"/>
</g>
</g>
<defs>
<clipPath id="clip0_133_15590">
<rect width="24" height="24" fill="white"/>
</clipPath>
</defs>
</svg>
