<svg width="24" height="24" viewBox="0 0 24 24" fill="none" xmlns="http://www.w3.org/2000/svg">
<g id="select_network=gnosis" clip-path="url(#clip0_353_17734)">
<g id="gnosis">
<path id="Vector" d="M7.056 13.6608C7.7472 13.6608 8.4192 13.4304 8.9664 13.008L4.5888 8.63037C3.5328 9.99357 3.7824 11.952 5.1456 13.008C5.6928 13.4208 6.3648 13.6512 7.056 13.6512V13.6608Z" fill="#04795B"/>
<path id="Vector_2" d="M20.064 10.5408C20.064 9.84957 19.8336 9.17757 19.4112 8.63037L15.0336 13.008C16.3968 14.064 18.3552 13.8144 19.4112 12.4512C19.8336 11.904 20.064 11.232 20.064 10.5408Z" fill="#04795B"/>
<path id="Vector_3" d="M22.272 5.77917L20.3328 7.71837C21.888 9.59037 21.648 12.3648 19.776 13.9296C18.1344 15.3024 15.7632 15.3024 14.1216 13.9296L12 16.0512L9.8784 13.9296C8.0064 15.4848 5.232 15.2448 3.6672 13.3728C2.2944 11.7312 2.2944 9.35997 3.6672 7.71837L2.6784 6.72957L1.7376 5.77917C0.5952 7.65117 0 9.80158 0 12C0 18.624 5.376 24 12 24C18.624 24 24 18.624 24 12C24.0096 9.81117 23.3952 7.65117 22.272 5.77917Z" fill="#04795B"/>
<path id="Vector_4" d="M20.6784 3.71516C16.1088 -1.07524 8.51521 -1.25764 3.72481 3.31196C3.58081 3.44636 3.44641 3.58076 3.32161 3.71516C3.02401 4.03196 2.74561 4.35836 2.47681 4.69436L12 14.2176L21.5232 4.69436C21.264 4.34876 20.976 4.02236 20.6784 3.71516ZM12 1.56476C14.8032 1.56476 17.4144 2.64956 19.3824 4.61756L12 12L4.61761 4.61756C6.57601 2.63996 9.19681 1.56476 12 1.56476Z" fill="#04795B"/>
</g>
</g>
<defs>
<clipPath id="clip0_353_17734">
<rect width="24" height="24" fill="white"/>
</clipPath>
</defs>
</svg>
