<svg width="24" height="24" viewBox="0 0 24 24" fill="none" xmlns="http://www.w3.org/2000/svg">
<g id="select_token=matic" clip-path="url(#clip0_271_16324)">
<g id="matic">
<path id="Vector" d="M12 24C18.6274 24 24 18.6274 24 12C24 5.37258 18.6274 0 12 0C5.37258 0 0 5.37258 0 12C0 18.6274 5.37258 24 12 24Z" fill="#8247E5"/>
<path id="Vector_2" d="M15.9719 9.43246C15.6841 9.26503 15.3099 9.26503 14.9933 9.43246L12.7483 10.7162L11.2229 11.5534L8.97786 12.8371C8.69002 13.0046 8.31586 13.0046 7.99925 12.8371L6.21474 11.8325C5.92693 11.665 5.72546 11.358 5.72546 11.0231V9.04176C5.72546 8.70689 5.89815 8.3999 6.21474 8.23247L7.97047 7.25571C8.25828 7.08827 8.63246 7.08827 8.94908 7.25571L10.7048 8.23247C10.9926 8.3999 11.1941 8.70689 11.1941 9.04176V10.3255L12.7195 9.46036V8.17664C12.7195 7.84176 12.5468 7.53478 12.2303 7.36734L8.97786 5.52548C8.69002 5.35804 8.31586 5.35804 7.99925 5.52548L4.68929 7.36734C4.37267 7.53478 4.19998 7.84176 4.19998 8.17664V11.8883C4.19998 12.2231 4.37267 12.5301 4.68929 12.6976L7.99925 14.5394C8.28708 14.7069 8.66124 14.7069 8.97786 14.5394L11.2229 13.2836L12.7483 12.4185L14.9933 11.1627C15.2812 10.9953 15.6553 10.9953 15.9719 11.1627L17.7277 12.1394C18.0155 12.3069 18.217 12.6138 18.217 12.9487V14.9301C18.217 15.265 18.0443 15.572 17.7277 15.7394L15.9719 16.7441C15.6841 16.9115 15.3099 16.9115 14.9933 16.7441L13.2376 15.7673C12.9498 15.5999 12.7483 15.2929 12.7483 14.958V13.6743L11.2229 14.5394V15.8231C11.2229 16.158 11.3956 16.465 11.7122 16.6325L15.0221 18.4743C15.3099 18.6418 15.6841 18.6418 16.0007 18.4743L19.3107 16.6325C19.5985 16.465 19.8 16.158 19.8 15.8231V12.1115C19.8 11.7766 19.6273 11.4697 19.3107 11.3022L15.9719 9.43246Z" fill="white"/>
</g>
</g>
<defs>
<clipPath id="clip0_271_16324">
<rect width="24" height="24" fill="white"/>
</clipPath>
</defs>
</svg>
