<svg width="24" height="24" viewBox="0 0 24 24" fill="none" xmlns="http://www.w3.org/2000/svg">
<g id="select_wallet=metamask">
<g id="metamask">
<path id="Vector" fill-rule="evenodd" clip-rule="evenodd" d="M7.72406 19.433L10.344 20.1287V19.2189L10.5578 19.0049H12.0549V20.0752V20.8245H10.4509L8.47261 19.9682L7.72406 19.433Z" fill="#CDBDB2"/>
<path id="Vector_2" fill-rule="evenodd" clip-rule="evenodd" d="M16.2788 19.433L13.7124 20.1287V19.2189L13.4985 19.0049H12.0014V20.0752V20.8245H13.6055L15.5837 19.9682L16.2788 19.433Z" fill="#CDBDB2"/>
<path id="Vector_3" fill-rule="evenodd" clip-rule="evenodd" d="M10.5578 17.4529L10.3439 19.219L10.6112 19.0049H13.3915L13.7123 19.219L13.4985 17.4529L13.0707 17.1853L10.932 17.2388L10.5578 17.4529Z" fill="#393939"/>
<path id="Vector_4" fill-rule="evenodd" clip-rule="evenodd" d="M9.1142 5.51855L10.3974 8.51554L10.9855 17.2389H13.0707L13.7123 8.51554L14.8886 5.51855H9.1142Z" fill="#F89C35"/>
<path id="Vector_5" fill-rule="evenodd" clip-rule="evenodd" d="M3.50013 12.1011L2.00305 16.4361L5.74574 16.222H8.15177V14.3489L8.04482 10.4956L7.51017 10.9238L3.50013 12.1011Z" fill="#F89D35"/>
<path id="Vector_6" fill-rule="evenodd" clip-rule="evenodd" d="M6.33392 12.5828L10.7182 12.6898L10.237 14.9375L8.1518 14.4024L6.33392 12.5828Z" fill="#D87C30"/>
<path id="Vector_7" fill-rule="evenodd" clip-rule="evenodd" d="M6.33392 12.6362L8.1518 14.3488V16.0613L6.33392 12.6362Z" fill="#EA8D3A"/>
<path id="Vector_8" fill-rule="evenodd" clip-rule="evenodd" d="M8.15179 14.4023L10.2905 14.9375L10.9855 17.2388L10.5043 17.5064L8.15179 16.1149V14.4023Z" fill="#F89D35"/>
<path id="Vector_9" fill-rule="evenodd" clip-rule="evenodd" d="M8.15181 16.115L7.72406 19.4331L10.5578 17.4529L8.15181 16.115Z" fill="#EB8F35"/>
<path id="Vector_10" fill-rule="evenodd" clip-rule="evenodd" d="M10.7182 12.6898L10.9855 17.2388L10.1835 14.9108L10.7182 12.6898Z" fill="#EA8E3A"/>
<path id="Vector_11" fill-rule="evenodd" clip-rule="evenodd" d="M5.69232 16.1685L8.1518 16.115L7.72405 19.4331L5.69232 16.1685Z" fill="#D87C30"/>
<path id="Vector_12" fill-rule="evenodd" clip-rule="evenodd" d="M3.17932 20.878L7.72402 19.4331L5.69227 16.1685L2.00305 16.4361L3.17932 20.878Z" fill="#EB8F35"/>
<path id="Vector_13" fill-rule="evenodd" clip-rule="evenodd" d="M10.3974 8.51538L8.09835 10.442L6.33392 12.5827L10.7182 12.7433L10.3974 8.51538Z" fill="#E8821E"/>
<path id="Vector_14" fill-rule="evenodd" clip-rule="evenodd" d="M7.72406 19.433L10.5578 17.4529L10.344 19.1654V20.1287L8.41916 19.7541L7.72406 19.433Z" fill="#DFCEC3"/>
<path id="Vector_15" fill-rule="evenodd" clip-rule="evenodd" d="M16.2788 19.433L13.4985 17.4529L13.7123 19.1654V20.1287L15.6372 19.7541L16.2788 19.433Z" fill="#DFCEC3"/>
<path id="Vector_16" fill-rule="evenodd" clip-rule="evenodd" d="M9.54196 13.6531L10.1301 14.884L8.04486 14.3488L9.54196 13.6531Z" fill="#393939"/>
<path id="Vector_17" fill-rule="evenodd" clip-rule="evenodd" d="M3.12585 3.00317L10.3974 8.51548L9.16762 5.5185L3.12585 3.00317Z" fill="#E88F35"/>
<path id="Vector_18" fill-rule="evenodd" clip-rule="evenodd" d="M3.12586 3.00317L2.16345 5.94664L2.69812 9.15768L2.32385 9.37178L2.85852 9.85343L2.43079 10.228L3.01892 10.7632L2.64465 11.0843L3.50013 12.1547L7.51017 10.9238C9.47062 9.35393 10.433 8.55113 10.3974 8.51548C10.3617 8.47978 7.93787 6.64237 3.12586 3.00317Z" fill="#8E5A30"/>
<path id="Vector_19" fill-rule="evenodd" clip-rule="evenodd" d="M20.5027 12.1011L21.9998 16.4361L18.2571 16.222H15.8511V14.3489L15.958 10.4956L16.4927 10.9238L20.5027 12.1011Z" fill="#F89D35"/>
<path id="Vector_20" fill-rule="evenodd" clip-rule="evenodd" d="M17.6689 12.5828L13.2846 12.6898L13.7658 14.9375L15.8511 14.4024L17.6689 12.5828Z" fill="#D87C30"/>
<path id="Vector_21" fill-rule="evenodd" clip-rule="evenodd" d="M17.6689 12.6362L15.8511 14.3488V16.0613L17.6689 12.6362Z" fill="#EA8D3A"/>
<path id="Vector_22" fill-rule="evenodd" clip-rule="evenodd" d="M15.851 14.4023L13.7123 14.9375L13.0173 17.2388L13.4985 17.5064L15.851 16.1149V14.4023Z" fill="#F89D35"/>
<path id="Vector_23" fill-rule="evenodd" clip-rule="evenodd" d="M15.851 16.115L16.2788 19.4331L13.4985 17.5064L15.851 16.115Z" fill="#EB8F35"/>
<path id="Vector_24" fill-rule="evenodd" clip-rule="evenodd" d="M13.2846 12.6898L13.0173 17.2388L13.8193 14.9108L13.2846 12.6898Z" fill="#EA8E3A"/>
<path id="Vector_25" fill-rule="evenodd" clip-rule="evenodd" d="M18.3105 16.1685L15.8511 16.115L16.2788 19.4331L18.3105 16.1685Z" fill="#D87C30"/>
<path id="Vector_26" fill-rule="evenodd" clip-rule="evenodd" d="M20.8235 20.878L16.2787 19.4331L18.3105 16.1685L21.9997 16.4361L20.8235 20.878Z" fill="#EB8F35"/>
<path id="Vector_27" fill-rule="evenodd" clip-rule="evenodd" d="M13.6054 8.51538L15.9045 10.442L17.6689 12.5827L13.2846 12.7433L13.6054 8.51538Z" fill="#E8821E"/>
<path id="Vector_28" fill-rule="evenodd" clip-rule="evenodd" d="M14.4609 13.6531L13.8727 14.884L15.958 14.3488L14.4609 13.6531Z" fill="#393939"/>
<path id="Vector_29" fill-rule="evenodd" clip-rule="evenodd" d="M20.877 3.00317L13.6055 8.51548L14.8352 5.5185L20.877 3.00317Z" fill="#E88F35"/>
<path id="Vector_30" fill-rule="evenodd" clip-rule="evenodd" d="M20.8769 3.00317L21.8393 5.94664L21.3046 9.15768L21.6789 9.37178L21.1442 9.85343L21.572 10.228L20.9838 10.7632L21.3581 11.0843L20.5026 12.1547L16.4926 10.9238C14.5321 9.35393 13.5697 8.55113 13.6054 8.51548C13.641 8.47978 16.0649 6.64237 20.8769 3.00317Z" fill="#8E5A30"/>
</g>
</g>
</svg>
