<svg width="40" height="24" viewBox="0 0 40 24" fill="none" xmlns="http://www.w3.org/2000/svg">
<g id="size=md">
<g id="token" clip-path="url(#clip0_291_19185)">
<g id="matic">
<path id="Vector" d="M12 24C18.6274 24 24 18.6274 24 12C24 5.37258 18.6274 0 12 0C5.37258 0 0 5.37258 0 12C0 18.6274 5.37258 24 12 24Z" fill="#8247E5"/>
<path id="Vector_2" d="M15.9719 9.43246C15.6841 9.26503 15.3099 9.26503 14.9933 9.43246L12.7483 10.7162L11.2228 11.5534L8.97783 12.8371C8.68999 13.0046 8.31583 13.0046 7.99922 12.8371L6.21471 11.8325C5.9269 11.665 5.72543 11.358 5.72543 11.0231V9.04176C5.72543 8.70689 5.89811 8.3999 6.21471 8.23247L7.97044 7.25571C8.25825 7.08827 8.63243 7.08827 8.94904 7.25571L10.7047 8.23247C10.9926 8.3999 11.1941 8.70689 11.1941 9.04176V10.3255L12.7195 9.46036V8.17664C12.7195 7.84176 12.5468 7.53478 12.2302 7.36734L8.97783 5.52548C8.68999 5.35804 8.31583 5.35804 7.99922 5.52548L4.68926 7.36734C4.37264 7.53478 4.19995 7.84176 4.19995 8.17664V11.8883C4.19995 12.2231 4.37264 12.5301 4.68926 12.6976L7.99922 14.5394C8.28705 14.7069 8.66121 14.7069 8.97783 14.5394L11.2228 13.2836L12.7483 12.4185L14.9933 11.1627C15.2811 10.9953 15.6553 10.9953 15.9719 11.1627L17.7276 12.1394C18.0154 12.3069 18.2169 12.6138 18.2169 12.9487V14.9301C18.2169 15.265 18.0442 15.572 17.7276 15.7394L15.9719 16.7441C15.6841 16.9115 15.3099 16.9115 14.9933 16.7441L13.2376 15.7673C12.9498 15.5999 12.7483 15.2929 12.7483 14.958V13.6743L11.2228 14.5394V15.8231C11.2228 16.158 11.3955 16.465 11.7121 16.6325L15.0221 18.4743C15.3099 18.6418 15.6841 18.6418 16.0007 18.4743L19.3106 16.6325C19.5985 16.465 19.8 16.158 19.8 15.8231V12.1115C19.8 11.7766 19.6273 11.4697 19.3106 11.3022L15.9719 9.43246Z" fill="white"/>
</g>
</g>
<g id="token_2" clip-path="url(#clip1_291_19185)">
<path id="Vector_3" fill-rule="evenodd" clip-rule="evenodd" d="M16 12C16 5.37259 21.3726 0 28 0C34.6274 0 40 5.37259 40 12C40 18.6274 34.6274 24 28 24C21.3726 24 16 18.6274 16 12Z" fill="#50AF95"/>
<path id="Vector_4" fill-rule="evenodd" clip-rule="evenodd" d="M29.4243 12.9468C29.3447 12.9528 28.9337 12.9774 28.0169 12.9774C27.2877 12.9774 26.77 12.9555 26.5883 12.9468C23.7703 12.8226 21.6669 12.331 21.6669 11.7424C21.6669 11.1538 23.7703 10.6629 26.5883 10.5367V12.4572C26.7726 12.4705 27.3003 12.5017 28.0295 12.5017C28.9045 12.5017 29.3427 12.4652 29.4216 12.4579V10.538C32.2337 10.6635 34.3325 11.1551 34.3325 11.7424C34.3325 12.3297 32.2343 12.8213 29.4216 12.9462L29.4243 12.9468ZM29.4243 10.3394V8.62075H33.3487V6H22.6639V8.62075H26.5877V10.3387C23.3984 10.4855 21 11.1186 21 11.8773C21 12.6359 23.3984 13.2684 26.5877 13.4158V18.9231H29.4236V13.4138C32.6056 13.267 35 12.6346 35 11.8766C35 11.1186 32.6076 10.4862 29.4236 10.3387L29.4243 10.3394Z" fill="white"/>
</g>
</g>
<defs>
<clipPath id="clip0_291_19185">
<rect width="24" height="24" fill="white"/>
</clipPath>
<clipPath id="clip1_291_19185">
<rect width="24" height="24" fill="white" transform="translate(16)"/>
</clipPath>
</defs>
</svg>
