<svg width="28" height="16" viewBox="0 0 28 16" fill="none" xmlns="http://www.w3.org/2000/svg">
<g id="size=xs">
<g id="token" clip-path="url(#clip0_291_19204)">
<g id="matic">
<path id="Vector" d="M8 16C12.4183 16 16 12.4183 16 8C16 3.58172 12.4183 0 8 0C3.58172 0 0 3.58172 0 8C0 12.4183 3.58172 16 8 16Z" fill="#8247E5"/>
<path id="Vector_2" d="M10.648 6.28829C10.4561 6.17666 10.2066 6.17666 9.99557 6.28829L8.49888 7.1441L7.48191 7.70224L5.98524 8.55806C5.79335 8.66968 5.54391 8.66968 5.33283 8.55806L4.14316 7.88829C3.95128 7.77666 3.81697 7.57201 3.81697 7.34874V6.02782C3.81697 5.80457 3.9321 5.59992 4.14316 5.48829L5.31364 4.83712C5.50552 4.72549 5.75497 4.72549 5.96605 4.83712L7.13652 5.48829C7.32841 5.59992 7.46272 5.80457 7.46272 6.02782V6.88363L8.47969 6.30688V5.45107C8.47969 5.22782 8.36457 5.02316 8.1535 4.91154L5.98524 3.68363C5.79335 3.57201 5.54391 3.57201 5.33283 3.68363L3.12619 4.91154C2.91511 5.02316 2.79999 5.22782 2.79999 5.45107V7.92549C2.79999 8.14874 2.91511 8.3534 3.12619 8.46502L5.33283 9.69293C5.52472 9.80457 5.77416 9.80457 5.98524 9.69293L7.48191 8.85573L8.49888 8.27898L9.99557 7.44177C10.1874 7.33015 10.4369 7.33015 10.648 7.44177L11.8184 8.09293C12.0103 8.20457 12.1446 8.40921 12.1446 8.63248V9.9534C12.1446 10.1767 12.0295 10.3813 11.8184 10.4929L10.648 11.1627C10.4561 11.2743 10.2066 11.2743 9.99557 11.1627L8.82508 10.5115C8.63321 10.3999 8.49888 10.1953 8.49888 9.97201V9.1162L7.48191 9.69293V10.5487C7.48191 10.772 7.59703 10.9767 7.80811 11.0883L10.0148 12.3162C10.2066 12.4278 10.4561 12.4278 10.6671 12.3162L12.8738 11.0883C13.0657 10.9767 13.2 10.772 13.2 10.5487V8.07434C13.2 7.85107 13.0849 7.64643 12.8738 7.53479L10.648 6.28829Z" fill="white"/>
</g>
</g>
<g id="token_2" clip-path="url(#clip1_291_19204)">
<path id="Vector_3" fill-rule="evenodd" clip-rule="evenodd" d="M12 8C12 3.58173 15.5817 0 20 0C24.4183 0 28 3.58173 28 8C28 12.4183 24.4183 16 20 16C15.5817 16 12 12.4183 12 8Z" fill="#50AF95"/>
<path id="Vector_4" fill-rule="evenodd" clip-rule="evenodd" d="M20.9495 8.6312C20.8964 8.6352 20.6224 8.6516 20.0112 8.6516C19.5251 8.6516 19.18 8.637 19.0588 8.6312C17.1802 8.5484 15.7779 8.22067 15.7779 7.82827C15.7779 7.43587 17.1802 7.1086 19.0588 7.02447V8.3048C19.1817 8.31367 19.5335 8.33447 20.0196 8.33447C20.603 8.33447 20.8951 8.31013 20.9477 8.30527V7.02533C22.8224 7.109 24.2216 7.43673 24.2216 7.82827C24.2216 8.2198 22.8228 8.54753 20.9477 8.6308L20.9495 8.6312ZM20.9495 6.89293V5.74717H23.5658V4H16.4426V5.74717H19.0584V6.89247C16.9323 6.99033 15.3333 7.4124 15.3333 7.9182C15.3333 8.42393 16.9323 8.8456 19.0584 8.94387V12.6154H20.949V8.94253C23.0704 8.84467 24.6666 8.42307 24.6666 7.91773C24.6666 7.4124 23.0717 6.9908 20.949 6.89247L20.9495 6.89293Z" fill="white"/>
</g>
</g>
<defs>
<clipPath id="clip0_291_19204">
<rect width="16" height="16" fill="white"/>
</clipPath>
<clipPath id="clip1_291_19204">
<rect width="16" height="16" fill="white" transform="translate(12)"/>
</clipPath>
</defs>
</svg>
