<svg width="32" height="20" viewBox="0 0 32 20" fill="none" xmlns="http://www.w3.org/2000/svg">
<g id="size=sm">
<g id="token" clip-path="url(#clip0_297_16692)">
<g id="matic">
<path id="Vector" d="M10 20C15.5228 20 20 15.5228 20 10C20 4.47715 15.5228 0 10 0C4.47715 0 0 4.47715 0 10C0 15.5228 4.47715 20 10 20Z" fill="#8247E5"/>
<path id="Vector_2" d="M13.31 7.86041C13.0701 7.72088 12.7583 7.72088 12.4945 7.86041L10.6236 8.93017L9.3524 9.62785L7.48156 10.6976C7.2417 10.8371 6.9299 10.8371 6.66605 10.6976L5.17896 9.86041C4.93912 9.72088 4.77123 9.46506 4.77123 9.18597V7.53482C4.77123 7.25576 4.91514 6.99994 5.17896 6.86041L6.64207 6.04644C6.88191 5.90691 7.19373 5.90691 7.45758 6.04644L8.92066 6.86041C9.16053 6.99994 9.32842 7.25576 9.32842 7.53482V8.60459L10.5996 7.88365V6.81388C10.5996 6.53482 10.4557 6.279 10.1919 6.13947L7.48156 4.60459C7.2417 4.46506 6.9299 4.46506 6.66605 4.60459L3.90775 6.13947C3.64391 6.279 3.5 6.53482 3.5 6.81388V9.90691C3.5 10.186 3.64391 10.4418 3.90775 10.5813L6.66605 12.1162C6.90592 12.2558 7.21771 12.2558 7.48156 12.1162L9.3524 11.0697L10.6236 10.3488L12.4945 9.30226C12.7343 9.16273 13.0461 9.16273 13.31 9.30226L14.7731 10.1162C15.0129 10.2558 15.1808 10.5116 15.1808 10.7906V12.4418C15.1808 12.7209 15.0369 12.9767 14.7731 13.1162L13.31 13.9534C13.0701 14.093 12.7583 14.093 12.4945 13.9534L11.0314 13.1395C10.7915 12.9999 10.6236 12.7441 10.6236 12.4651V11.3953L9.3524 12.1162V13.186C9.3524 13.4651 9.49631 13.7209 9.76016 13.8604L12.5185 15.3953C12.7583 15.5348 13.0701 15.5348 13.3339 15.3953L16.0922 13.8604C16.3321 13.7209 16.5 13.4651 16.5 13.186V10.093C16.5 9.81388 16.3561 9.55808 16.0922 9.41853L13.31 7.86041Z" fill="white"/>
</g>
</g>
<g id="token_2" clip-path="url(#clip1_297_16692)">
<path id="Vector_3" fill-rule="evenodd" clip-rule="evenodd" d="M12 10C12 4.47716 16.4772 0 22 0C27.5228 0 32 4.47716 32 10C32 15.5228 27.5228 20 22 20C16.4772 20 12 15.5228 12 10Z" fill="#50AF95"/>
<path id="Vector_4" fill-rule="evenodd" clip-rule="evenodd" d="M23.1869 10.789C23.1206 10.794 22.7781 10.8145 22.0141 10.8145C21.4064 10.8145 20.975 10.7963 20.8236 10.789C18.4753 10.6855 16.7224 10.2758 16.7224 9.78533C16.7224 9.29483 18.4753 8.88575 20.8236 8.78058V10.381C20.9772 10.3921 21.4169 10.4181 22.0246 10.4181C22.7538 10.4181 23.1189 10.3877 23.1847 10.3816V8.78167C25.5281 8.88625 27.2771 9.29592 27.2771 9.78533C27.2771 10.2748 25.5286 10.6844 23.1847 10.7885L23.1869 10.789ZM23.1869 8.61617V7.18396H26.4573V5H17.5533V7.18396H20.8231V8.61558C18.1654 8.73792 16.1667 9.2655 16.1667 9.89775C16.1667 10.5299 18.1654 11.057 20.8231 11.1798V15.7692H23.1864V11.1782C25.838 11.0558 27.8334 10.5288 27.8334 9.89717C27.8334 9.2655 25.8397 8.7385 23.1864 8.61558L23.1869 8.61617Z" fill="white"/>
</g>
</g>
<defs>
<clipPath id="clip0_297_16692">
<rect width="20" height="20" fill="white"/>
</clipPath>
<clipPath id="clip1_297_16692">
<rect width="20" height="20" fill="white" transform="translate(12)"/>
</clipPath>
</defs>
</svg>
