<svg width="24" height="24" viewBox="0 0 24 24" fill="none" xmlns="http://www.w3.org/2000/svg">
<g id="select_token=tel" clip-path="url(#clip0_615_7865)">
<g id="tel">
<path id="Vector" d="M12 24.0005C18.6274 24.0005 24 18.6279 24 12.0005C24 5.37307 18.6274 0.000488281 12 0.000488281C5.37258 0.000488281 0 5.37307 0 12.0005C0 18.6279 5.37258 24.0005 12 24.0005Z" fill="#00C9FF"/>
<path id="Vector_2" d="M17.2008 17.6921L11.2769 19.8318C10.6707 20.0508 9.99475 19.9323 9.49959 19.5204L4.65528 15.4939C4.15487 15.0775 3.91479 14.4255 4.02732 13.784L5.10317 7.64257C5.21571 7.00111 5.66285 6.46919 6.27505 6.24787L12.199 4.10818C12.8052 3.88911 13.4811 4.00764 13.9763 4.41953L18.8198 8.44608C19.3203 8.86246 19.5603 9.51442 19.4478 10.1559L18.372 16.2974C18.2602 16.9388 17.813 17.4707 17.2008 17.6921Z" fill="#FEFEFE"/>
<path id="Vector_3" d="M12.6784 8.32497L12.3768 9.94024H14.5847C14.5847 9.94024 14.4392 11.1331 14.3957 11.1331C14.3521 11.1331 12.1547 11.1331 12.1547 11.1331L11.6745 13.6652C11.6745 13.6652 11.5432 14.2766 11.9656 14.3051H13.6972L13.4646 15.6151H11.2814C11.2814 15.6151 9.84094 15.4988 10.03 13.8107L10.4809 11.1766H9.5791L9.7389 10.0708C9.7389 10.0708 11.1944 9.67766 11.9506 8.32422H12.6784V8.32497Z" fill="#00C9FF"/>
</g>
</g>
<defs>
<clipPath id="clip0_615_7865">
<rect width="24" height="24" fill="white"/>
</clipPath>
</defs>
</svg>
