<svg width="24" height="24" viewBox="0 0 24 24" fill="none" xmlns="http://www.w3.org/2000/svg">
<g id="tokens=quickswap" clip-path="url(#clip0_287_16546)">
<path id="Vector" d="M11.309 0.0202389C17.2192 -0.321394 22.494 3.69621 23.7341 9.48346C24.0724 11.0721 24.086 12.7153 23.7751 14.3107C22.9996 18.2463 20.3144 21.5328 16.6145 23.0804C14.0933 24.1395 11.2099 24.2864 8.58957 23.5075C4.99901 22.4382 2.1088 19.7564 0.776435 16.2546C-0.180137 13.7436 -0.255296 10.9115 0.564623 8.35266C2.07464 3.61763 6.34846 0.303794 11.309 0.0202389Z" fill="white"/>
<path id="Vector_2" d="M4.61639 11.13C4.66422 11.3487 4.69155 11.5707 4.73937 11.7928C4.77012 11.926 4.81112 11.8953 4.87944 11.8372C5.01268 11.7279 5.13908 11.6083 5.28599 11.5195C5.32698 11.5263 5.3509 11.5605 5.37139 11.5912C5.76086 12.1003 6.27672 12.4112 6.88824 12.5786C7.16838 12.6571 7.45877 12.7084 7.74916 12.7391C7.65692 12.6366 7.58176 12.5239 7.52368 12.3975C7.42461 12.1788 7.45877 11.9841 7.62617 11.8099C7.82773 11.5981 8.09079 11.5092 8.36068 11.4409C8.92437 11.294 9.49832 11.2804 10.0757 11.3214C10.5403 11.3521 10.9981 11.4307 11.449 11.5571C11.8248 11.663 12.1904 11.786 12.5218 11.9978C12.5696 12.0354 12.6003 12.0866 12.6448 12.1242C13.0718 12.582 13.3212 13.1218 13.3383 13.7469C13.3485 14.1774 13.2289 14.5908 13.0137 14.97C12.6243 15.6533 12.0537 16.152 11.3739 16.5312C10.6838 16.9173 9.92194 17.1564 9.13277 17.2384C7.72524 17.3922 6.41679 17.0847 5.21766 16.3365C4.22009 15.7147 3.45142 14.8641 2.82623 13.8802C2.53584 13.4121 2.27962 12.9236 2.05756 12.418C2.03023 12.3565 2.02339 12.2882 1.99606 12.2369C2.01315 12.2984 2.04731 12.3633 1.9824 12.4282C1.9619 12.172 1.98582 11.9192 1.99948 11.6664C2.03364 10.9661 2.14297 10.2725 2.32403 9.59952C3.14737 6.55558 5.35431 4.07874 8.28552 2.91036C9.16693 2.55847 10.0928 2.33983 11.0357 2.25442C12.5252 2.11777 13.9669 2.3125 15.3744 2.81128C15.1592 3.21782 13.9395 4.30422 12.9898 4.93624C12.9625 4.66293 12.901 4.39304 12.8053 4.1334C12.8019 4.06507 12.8634 4.04458 12.901 4.01041C13.0991 3.8396 13.2973 3.6722 13.4954 3.5048C13.5159 3.48771 13.5364 3.47063 13.5535 3.45355C13.5774 3.42964 13.615 3.40914 13.6047 3.37156C13.5979 3.33398 13.5535 3.33398 13.5193 3.32715C13.4271 3.30665 13.3349 3.2964 13.2392 3.29298C13.1094 3.27932 12.9796 3.24857 12.8497 3.24516C12.7472 3.23832 12.6482 3.21441 12.5491 3.22124C12.4979 3.22124 12.4466 3.21782 12.3954 3.21099C12.31 3.18366 12.2211 3.19733 12.1357 3.19733C12.0845 3.19733 12.0332 3.19391 11.9786 3.19733C11.8283 3.20416 11.6813 3.18025 11.531 3.20758C11.4935 3.21441 11.4593 3.21782 11.4217 3.21782C11.3773 3.21782 11.3363 3.22124 11.2919 3.21782C11.2372 3.21099 11.1791 3.21782 11.1245 3.23491C10.9673 3.24857 10.8102 3.26224 10.6565 3.28957C10.4686 3.33056 10.2772 3.3374 10.0928 3.38522C9.92194 3.42964 9.74771 3.45355 9.58031 3.51163C9.35825 3.57312 9.13619 3.64145 8.91754 3.71661C8.59982 3.84301 8.27527 3.95917 7.97122 4.12315C7.28454 4.45795 6.64227 4.88158 6.06833 5.38378C5.53538 5.84498 5.05709 6.36426 4.64372 6.93479C4.43874 7.22176 4.24742 7.51898 4.08002 7.82986C3.9707 8.03143 3.86821 8.23641 3.77255 8.4448C3.70423 8.60537 3.62224 8.76252 3.56757 8.92992C3.49925 9.09732 3.44459 9.26814 3.38993 9.44237C3.32501 9.6166 3.28744 9.79767 3.23961 9.9719C3.21911 10.0402 3.20544 10.112 3.18836 10.1837C3.16786 10.2691 3.1542 10.3545 3.13712 10.4399C3.10979 10.5834 3.08587 10.7303 3.06537 10.8772C3.03804 11.0275 3.02096 11.1779 3.01071 11.3316C2.9868 11.4307 3.00388 11.5366 2.9868 11.6391C2.95947 11.7655 2.97655 11.8953 2.96972 12.0217C2.9663 12.1105 2.96288 12.1993 2.9663 12.2882C2.9663 12.3258 2.94922 12.377 2.9868 12.3941C3.03121 12.4146 3.06196 12.3667 3.09612 12.3428C3.20544 12.254 3.31135 12.1618 3.41726 12.0695C3.77597 11.7621 4.1381 11.458 4.49682 11.1505C4.52756 11.13 4.56173 11.0617 4.61639 11.13Z" fill="#4189C9"/>
<path id="Vector_3" d="M12.5184 12.0251C12.0948 11.7723 11.6335 11.6288 11.1587 11.5161C10.5369 11.3692 9.89464 11.3077 9.25578 11.3418C8.80483 11.3658 8.35729 11.4273 7.9405 11.6254C7.88925 11.6493 7.84143 11.6766 7.79701 11.7074C7.4588 11.9329 7.40755 12.2335 7.65353 12.5581C7.70477 12.6264 7.75943 12.6879 7.82776 12.7699C7.60911 12.7699 7.41438 12.7289 7.22307 12.6913C6.7072 12.5888 6.22209 12.4112 5.80529 12.0764C5.60373 11.9158 5.42267 11.7381 5.28943 11.5127C5.34409 11.4238 5.43633 11.3828 5.52174 11.3316C5.68572 11.2633 5.83604 11.1642 6.00003 11.089C6.7277 10.7542 7.50662 10.5493 8.30263 10.4741C8.62035 10.4434 8.93807 10.4126 9.2592 10.4263C10.2021 10.4639 11.1382 10.6278 12.0367 10.9114C12.269 10.9831 12.4979 11.0651 12.7404 11.1437C12.7404 11.0754 12.7029 11.0344 12.6755 10.99C12.5799 10.826 12.4671 10.6688 12.3441 10.5219C12.2997 10.4673 12.2348 10.4229 12.2382 10.3409C12.3646 10.3716 12.4945 10.3989 12.6209 10.4297C12.655 10.4365 12.696 10.457 12.7165 10.4297C12.7473 10.3921 12.7029 10.3614 12.6824 10.334C12.4945 10.0539 12.2622 9.81475 12.0093 9.59269C12.1426 9.51411 12.2792 9.57902 12.4091 9.5961C13.738 9.76692 14.9474 10.2384 16.003 11.0651C17.4003 12.1618 18.3022 13.5761 18.6848 15.3185C18.8078 15.8992 18.8454 16.4971 18.801 17.0881C18.7258 18.1164 18.4013 19.0662 17.7932 19.91C17.7522 19.9647 17.6975 20.0091 17.6702 20.074C17.5335 20.279 17.3286 20.419 17.1441 20.5693C16.1363 21.3893 14.9576 21.8163 13.6902 22.0145C12.7029 22.1716 11.6985 22.1887 10.7077 22.0657C9.14646 21.8744 7.65353 21.3107 6.35532 20.4224C6.0376 20.2072 5.72672 19.9852 5.45 19.7187C5.43975 19.7118 5.43975 19.6982 5.44658 19.6879L5.45 19.6845C5.50807 19.6606 5.54565 19.705 5.58665 19.7323C6.24942 20.2311 7.00442 20.5967 7.80726 20.8119C8.07715 20.8802 8.34704 20.9349 8.62376 20.9759C8.68526 20.9998 8.75358 20.9861 8.81508 20.9998C8.82874 20.9998 8.84241 21.0032 8.85266 21.0066C9.47443 21.0818 10.0962 21.0374 10.7111 20.9281C12.0606 20.6889 13.2631 20.1252 14.288 19.2131C14.9884 18.5947 15.5418 17.8636 15.8356 16.9617C16.1294 16.0598 16.0884 15.1818 15.6751 14.3141C15.5897 14.7035 15.3881 15.0246 15.1319 15.3185C14.8756 15.6054 14.575 15.8514 14.2402 16.0427C14.2026 16.0666 14.1582 16.1076 14.1138 16.0735C14.0762 16.0427 14.0967 15.9915 14.1104 15.9539C14.1924 15.684 14.247 15.4073 14.2778 15.1271C14.3974 13.9485 13.943 13.0295 13.0035 12.336C12.8463 12.2198 12.6858 12.1174 12.5184 12.0251Z" fill="#262F71"/>
<path id="Vector_4" d="M8.62376 20.9998C8.27871 20.9657 7.93708 20.8939 7.60228 20.7914C6.97367 20.6001 6.37923 20.3234 5.82921 19.9613C5.69939 19.8759 5.58665 19.7597 5.44658 19.6914C5.36458 19.6811 5.33042 19.5991 5.26551 19.565C3.88532 18.3385 2.94241 16.8319 2.40263 15.0725C2.13957 14.2184 1.99609 13.3302 1.98242 12.4351C1.98584 12.3668 1.98925 12.3019 1.99609 12.196C2.06441 12.3463 2.11566 12.4624 2.17032 12.582C2.66569 13.6718 3.30112 14.6626 4.1757 15.4893C5.10494 16.3673 6.18792 16.9549 7.46221 17.1599C8.95514 17.4024 10.3524 17.1428 11.637 16.3366C12.2792 15.9334 12.8019 15.4176 13.106 14.7104C13.4715 13.8529 13.3349 13.0569 12.7746 12.3224C12.7268 12.2575 12.6721 12.196 12.6243 12.1345C12.6892 12.0764 12.7268 12.1447 12.7643 12.1755C13.0957 12.4522 13.3588 12.8007 13.5364 13.1969C13.7073 13.5762 13.7995 13.9827 13.8029 14.3995C13.8097 14.8231 13.7141 15.2433 13.5296 15.626C13.5706 15.626 13.6082 15.6123 13.6389 15.585C13.8166 15.4825 13.984 15.3629 14.1411 15.2297C14.189 15.1887 14.2334 15.1238 14.3119 15.134C14.2709 15.4551 14.1992 15.7729 14.1035 16.0837C14.3085 15.9676 14.5067 15.8378 14.6946 15.6909C14.8415 15.5747 14.961 15.4312 15.1079 15.3117C15.1694 15.339 15.1694 15.4005 15.1831 15.4517C15.4188 16.3058 15.248 17.1018 14.8278 17.8534C14.3154 18.7656 13.5638 19.4454 12.6892 19.9954C11.982 20.4396 11.2065 20.7573 10.39 20.9349C9.87755 21.0511 9.35144 21.0818 8.82874 21.0272C8.76041 20.9896 8.68867 21.0306 8.62376 20.9998Z" fill="#161F42"/>
<path id="Vector_5" d="M21.5375 14.666C21.493 13.6889 21.2505 12.7324 20.8269 11.851C20.5501 11.277 20.2017 10.7406 19.7883 10.2555C19.4159 9.81482 18.9889 9.43903 18.5379 9.08031C18.5789 9.03932 18.6336 9.04615 18.6814 9.05298C19.31 9.12472 19.9249 9.27163 20.5194 9.49027C20.6663 9.54493 20.8098 9.60984 20.9464 9.68842C20.9943 9.71233 21.0421 9.73966 21.0899 9.77041C21.1002 9.77724 21.107 9.79432 21.1241 9.79091C21.1138 9.77724 21.1104 9.76016 21.1172 9.74308C20.7141 9.21697 20.2222 8.77626 19.7097 8.35947C19.0982 7.8641 18.432 7.44047 17.7214 7.09884C16.7375 6.61372 15.6819 6.29601 14.5921 6.16277C14.4964 6.1491 14.3939 6.16277 14.3017 6.12861C14.2948 6.0637 14.3495 6.0432 14.3871 6.01245C15.0259 5.4795 15.5384 4.8509 15.9005 4.10272C16.0098 3.87725 16.1021 3.64152 16.1772 3.40238C16.1977 3.33405 16.2114 3.25889 16.2797 3.2179C17.4242 3.76792 18.4491 4.53318 19.3032 5.47267C21.5716 7.96659 22.4257 11.4342 21.5784 14.6968C21.5545 14.707 21.5511 14.6831 21.5375 14.666Z" fill="#4189C9"/>
<path id="Vector_6" d="M17.6667 20.074C17.6667 19.975 17.7453 19.9169 17.7965 19.8451C18.2646 19.179 18.5481 18.441 18.695 17.6416C18.7873 17.1462 18.7941 16.6475 18.7634 16.1521C18.7121 15.3903 18.5174 14.6557 18.2099 13.952C17.9844 13.4361 17.7009 12.9476 17.3661 12.4966C17.0074 12.0218 16.5906 11.5879 16.1294 11.2121C15.4188 10.6245 14.5989 10.1838 13.7175 9.91047C13.2494 9.76015 12.7643 9.66108 12.2758 9.61325C12.1869 9.60641 12.1015 9.5825 12.0093 9.58933C11.6984 9.36044 11.3807 9.13838 11.0254 8.97781L11.0288 8.94365C11.1552 8.94365 11.285 8.94706 11.4114 8.94365C13.2016 8.9129 14.8551 9.35019 16.2968 10.44C17.7897 11.5708 18.7258 13.0637 19.0743 14.9086C19.3715 16.4801 19.1426 17.9662 18.268 19.3293C18.0972 19.606 17.9093 19.8622 17.6667 20.074Z" fill="#161F42"/>
<path id="Vector_7" d="M16.2865 3.21784C16.1089 3.76787 15.8834 4.29398 15.5589 4.77568C15.2343 5.2608 14.838 5.69467 14.3836 6.06364C14.3563 6.08414 14.3324 6.10805 14.3085 6.13196C14.1513 6.21054 14.0215 6.33353 13.878 6.42918C13.3485 6.77765 12.7814 7.07145 12.1904 7.30035C12.1767 7.30376 12.1596 7.30718 12.1459 7.3106C12.1186 7.27302 12.1494 7.25935 12.1664 7.24227C12.5012 6.92113 12.7096 6.52826 12.8497 6.09097C12.8634 6.03289 12.9044 5.98506 12.959 5.96798C14.001 5.5546 14.8346 4.87134 15.5144 3.98993C15.5759 3.91135 15.6374 3.82936 15.7126 3.72687C15.5008 3.72345 15.3402 3.82936 15.1626 3.85669C15.1284 3.86011 15.084 3.88744 15.0772 3.82253C15.7228 3.06752 16.2114 2.18611 16.5052 1.23978C16.5223 1.17829 16.5052 1.0963 16.5906 1.06555C16.5974 1.06897 16.6008 1.0758 16.5974 1.08263C16.5974 1.08947 16.594 1.09288 16.594 1.09288C16.5838 1.76931 16.4881 2.44233 16.3104 3.09485C16.3002 3.13243 16.2934 3.17342 16.2865 3.21784Z" fill="#161F42"/>
<path id="Vector_8" d="M12.2348 10.3444C12.4466 10.5767 12.6311 10.8363 12.7848 11.1131C12.7985 11.1404 12.8361 11.1711 12.8019 11.2019C12.7746 11.2258 12.7473 11.1951 12.7199 11.1848C12.0264 10.9252 11.3124 10.7304 10.5813 10.604C10.2123 10.5391 9.83996 10.5118 9.46758 10.4845C9.13278 10.464 8.79457 10.4674 8.45977 10.4981C7.69451 10.5596 6.94975 10.7236 6.23915 11.0311C6.02051 11.1267 5.79845 11.2121 5.59347 11.3385C5.56955 11.3522 5.54222 11.3761 5.51489 11.342C6.12983 10.9081 6.8131 10.5801 7.53736 10.3717C8.53493 10.0745 9.54957 10.0028 10.5847 10.0813C11.1108 10.1223 11.6335 10.2043 12.146 10.3205C12.1801 10.3239 12.2075 10.3341 12.2348 10.3444Z" fill="#161F42"/>
<path id="Vector_9" d="M11.9786 3.16321H12.1323C12.2143 3.19737 12.3065 3.15296 12.3885 3.18712H12.5423C12.5559 3.26228 12.4944 3.29303 12.4534 3.32719C11.7428 3.92847 11.0391 4.53315 10.3285 5.13101C10.0928 5.32916 9.86045 5.52731 9.62814 5.72545C9.59056 5.74937 9.56323 5.78353 9.54614 5.82111C9.23868 5.93726 8.9517 6.08075 8.72623 6.33014C8.62032 6.44971 8.54858 6.58637 8.47342 6.72302C8.26161 6.85967 8.08396 7.04074 7.89264 7.20131C7.38703 7.62493 6.88824 8.0588 6.38263 8.47901C6.34163 8.51318 6.31088 8.56442 6.26306 8.59175C6.17765 8.46193 6.19473 8.31844 6.21523 8.17837C6.28014 8.07247 6.37921 8.00756 6.46804 7.92898C6.95999 7.51219 7.44852 7.0954 7.93706 6.67861C8.41534 6.27206 8.89021 5.86552 9.3685 5.4624C9.91852 4.99778 10.4651 4.52974 11.0152 4.0617C11.3192 3.80206 11.6233 3.539 11.9342 3.2862C11.982 3.25545 12.0127 3.2247 11.9786 3.16321Z" fill="#5C94CE"/>
<path id="Vector_10" d="M20.9703 9.72593C20.369 9.43554 19.7302 9.25447 19.0743 9.14857C18.8966 9.12123 18.7224 9.08366 18.5447 9.08366C18.3158 8.94017 18.0903 8.78644 17.8546 8.64978C17.0928 8.20908 16.2592 7.90844 15.388 7.76837C15.3675 7.76154 15.3505 7.7547 15.3334 7.74787C15.593 7.70004 16.4847 7.83328 17.0996 8.0041C17.6736 8.16125 18.227 8.37648 18.7565 8.6532C18.7019 8.4858 18.5994 8.37648 18.5379 8.24324C18.5311 8.20908 18.4832 8.17833 18.514 8.14075C18.5447 8.10317 18.5857 8.14417 18.6165 8.15783C18.7053 8.19883 18.7907 8.24666 18.8795 8.28765C19.6243 8.6737 20.328 9.13832 20.9771 9.67126C21.0113 9.71568 21.0113 9.71568 20.9703 9.72593Z" fill="#161F42"/>
<path id="Vector_11" d="M11.9786 3.16321C11.9956 3.20079 12.0435 3.17346 12.0674 3.21445C11.9239 3.33744 11.7804 3.46384 11.6369 3.58683C11.3739 3.80889 11.1108 4.03095 10.8477 4.25301C10.4754 4.56732 10.103 4.88503 9.72719 5.19934C9.46755 5.41798 9.21474 5.64346 8.9551 5.86552C8.6408 6.13199 8.32308 6.39505 8.0122 6.66152C7.76281 6.87334 7.51683 7.08857 7.26744 7.30038C7.00438 7.52244 6.74132 7.7445 6.47827 7.96656L6.21521 8.18862L6.29037 7.85382C6.24937 7.7445 6.3382 7.69667 6.39628 7.64543C6.63542 7.44728 6.87114 7.2423 7.10687 7.04074C7.66032 6.5727 8.21034 6.10125 8.76379 5.63321C9.23866 5.23008 9.71353 4.82696 10.1884 4.42383C10.6291 4.04803 11.0732 3.67566 11.5105 3.29303C11.5447 3.26228 11.6096 3.22812 11.5139 3.19054C11.6677 3.13588 11.8248 3.17687 11.9786 3.16321Z" fill="#6497D0"/>
<path id="Vector_12" d="M11.5174 3.19053C11.5515 3.19737 11.5925 3.17687 11.6301 3.20761C11.5413 3.34085 11.4081 3.42626 11.2885 3.52875C10.9537 3.82255 10.6121 4.10952 10.2738 4.3965C9.96295 4.65955 9.64865 4.91919 9.33777 5.18225C9.02688 5.44531 8.71599 5.71861 8.40169 5.98509C8.08739 6.25156 7.7765 6.50779 7.46562 6.77084C7.15473 7.0339 6.84385 7.30379 6.52955 7.57368C6.4373 7.65567 6.3109 7.71033 6.28699 7.8504C6.123 7.8709 6.03418 8.00755 5.91461 8.09638C5.72329 8.23303 5.57639 8.42093 5.40216 8.57466C5.22451 8.70107 5.06736 8.85139 4.90337 8.99146C4.41142 9.40825 3.92289 9.82845 3.43094 10.2418C3.36261 10.2999 3.30112 10.3682 3.22596 10.4161C3.1918 10.4366 3.16105 10.4776 3.11322 10.4434C3.1098 10.3546 3.12689 10.2657 3.16446 10.1872C3.41044 10.03 3.61542 9.82162 3.83748 9.63714C4.449 9.12469 5.05369 8.60541 5.6618 8.08955C6.26991 7.57368 6.86776 7.06123 7.47245 6.54878C8.06348 6.04658 8.6545 5.54438 9.24552 5.04218C9.85021 4.52973 10.4549 4.01728 11.0562 3.50142C11.1757 3.39893 11.3022 3.30327 11.4149 3.19395L11.5174 3.19053Z" fill="#689AD1"/>
<path id="Vector_13" d="M12.8497 3.21445C12.9898 3.21104 13.123 3.24861 13.2597 3.2657C13.2972 3.34769 13.2255 3.37844 13.1845 3.41601C13.0137 3.56633 12.836 3.7064 12.6686 3.86014C12.6516 3.83622 12.6311 3.81231 12.614 3.78839C12.5764 3.73373 12.5491 3.7474 12.5252 3.79864C12.3236 4.23252 11.9785 4.53315 11.5993 4.79963C11.1757 5.09685 10.7179 5.34624 10.2362 5.54439C10.2089 5.49656 10.2089 5.49314 10.2533 5.44873C10.3455 5.35307 10.4514 5.2745 10.5505 5.18909C11.2782 4.57073 12.0059 3.95579 12.7301 3.33061C12.7711 3.29644 12.8087 3.25545 12.8497 3.21445Z" fill="#4E8FCC"/>
<path id="Vector_14" d="M12.8497 3.21451C12.8463 3.25551 12.8224 3.2965 12.7882 3.32042C12.3202 3.71671 11.8522 4.11642 11.3841 4.51271C11.0254 4.81677 10.6701 5.12424 10.3114 5.43171C10.2807 5.45904 10.2192 5.47953 10.2363 5.54444C10.0108 5.65035 9.77847 5.74601 9.54274 5.82458C9.46416 5.80408 9.52907 5.77334 9.54274 5.75967C9.68281 5.63668 9.82288 5.5137 9.96637 5.39413C10.226 5.17206 10.4891 4.95 10.7521 4.72794C11.0118 4.5093 11.2714 4.29065 11.5276 4.07201C11.7839 3.85336 12.0435 3.6313 12.2997 3.40924C12.3817 3.3375 12.4842 3.28284 12.5389 3.18376C12.6448 3.17693 12.7473 3.21109 12.8497 3.21451Z" fill="#5591CD"/>
<path id="Vector_15" d="M11.0322 6.29595C11.3021 6.16271 11.5857 6.04997 11.8214 5.85524C11.8692 5.85182 11.8658 5.88257 11.8521 5.91332C11.6335 6.81523 10.9502 7.40967 10.0244 7.49508C9.84675 7.51216 9.6691 7.53266 9.48804 7.51558C9.51195 7.45067 9.57345 7.45408 9.62469 7.44042C9.82625 7.38576 10.0244 7.32768 10.2123 7.23202C10.5608 7.05096 10.817 6.78448 10.9639 6.41893C10.9741 6.37111 10.9981 6.32669 11.0322 6.29595Z" fill="#161F42"/>
<path id="Vector_16" d="M11.0322 6.29602C10.9195 6.72648 10.6462 7.0237 10.267 7.23893C10.0244 7.37558 9.75451 7.44049 9.48804 7.51565C9.42313 7.32433 9.49487 7.16377 9.60761 7.01687C9.74085 6.84605 9.92533 6.74014 10.1201 6.65132C10.4173 6.51467 10.7213 6.39851 11.0322 6.29602Z" fill="#418AC9"/>
<path id="Vector_17" d="M3.11318 10.44C3.2635 10.3854 3.36258 10.2555 3.48215 10.1565C3.86819 9.83875 4.2474 9.5142 4.62662 9.19306C4.82818 9.02224 5.02291 8.85143 5.22106 8.6772C5.27572 8.62937 5.32355 8.57812 5.40212 8.57129C5.19714 8.82751 5.00241 9.09057 4.85551 9.38779C4.46263 9.71917 4.06976 10.054 3.68029 10.3888C3.49923 10.5425 3.31475 10.6928 3.1371 10.8534C3.10977 10.8773 3.07902 10.9081 3.03802 10.8739C3.04486 10.7304 3.06877 10.5835 3.11318 10.44Z" fill="#6497D0"/>
<path id="Vector_18" d="M4.61639 11.13C4.49682 11.1403 4.44216 11.2462 4.36017 11.3111C4.02195 11.5844 3.6974 11.8646 3.36943 12.1481C3.26011 12.2438 3.1542 12.3394 3.03805 12.4282C2.96289 12.4863 2.93214 12.4624 2.93556 12.3736C2.93556 12.2677 2.93556 12.1618 2.93556 12.0524C3.05513 11.9226 3.1952 11.8236 3.32844 11.7108C3.71106 11.3863 4.08686 11.0583 4.47632 10.7406C4.51048 10.7132 4.53781 10.662 4.59589 10.6962L4.61639 11.13Z" fill="#468CCA"/>
<path id="Vector_19" d="M6.26306 8.5986C6.26648 8.55419 6.29039 8.51661 6.32797 8.4927C6.63544 8.23306 6.94291 7.97341 7.25038 7.71377C7.50319 7.50196 7.75258 7.28332 8.00539 7.06809C8.13862 6.95535 8.26844 6.83919 8.39827 6.72646C8.42218 6.70596 8.44609 6.68888 8.47001 6.72646C8.44268 6.84261 8.40851 6.95877 8.41193 7.08175C8.27528 7.23207 8.10788 7.35164 7.95414 7.48488C7.47586 7.89484 6.99757 8.30138 6.51929 8.70792C6.49879 8.72501 6.48512 8.7455 6.46804 8.766C6.3758 8.74892 6.29722 8.68743 6.26306 8.5986Z" fill="#5591CD"/>
<path id="Vector_20" d="M3.03465 10.8773C3.14398 10.8432 3.20889 10.7475 3.2943 10.6792C3.74525 10.3068 4.18596 9.9276 4.6335 9.54839C4.70524 9.49031 4.75307 9.40148 4.85897 9.39124C4.77698 9.5928 4.70865 9.79778 4.65399 10.0062C4.57542 9.99934 4.53442 10.0608 4.48318 10.1052C4.01856 10.505 3.55052 10.8978 3.0859 11.2941C3.05857 11.318 3.03124 11.3522 2.98683 11.3385C2.97999 11.1814 2.99708 11.0277 3.03465 10.8773Z" fill="#5C94CE"/>
<path id="Vector_21" d="M6.46804 8.76604C6.43729 8.70796 6.48854 8.69088 6.51928 8.66696C6.91216 8.33216 7.30504 7.99736 7.69792 7.66598C7.91998 7.47808 8.14204 7.29018 8.36752 7.10229C8.38118 7.09545 8.39826 7.08862 8.41534 7.08521C8.41534 7.19111 8.43243 7.2936 8.46317 7.39267C8.32994 7.54983 8.15912 7.66598 8.00538 7.79922C7.66034 8.09644 7.31529 8.39024 6.96341 8.68405C6.93949 8.70113 6.91899 8.72504 6.91216 8.75237C6.76526 8.80703 6.61836 8.82753 6.46804 8.76604Z" fill="#4E8FCC"/>
<path id="Vector_22" d="M4.58903 10.6996C4.44554 10.7816 4.32939 10.9012 4.20298 11.0071C3.86818 11.2804 3.54022 11.5605 3.21566 11.8441C3.12684 11.9227 3.04485 12.0081 2.93211 12.0593C2.94577 11.9227 2.90478 11.7826 2.95602 11.6494C3.46164 11.2189 3.96726 10.7884 4.47629 10.358C4.51045 10.3272 4.54803 10.2931 4.59928 10.317L4.58903 10.6996Z" fill="#4E8FCC"/>
<path id="Vector_23" d="M4.60273 10.3136C4.43874 10.399 4.31575 10.5356 4.17569 10.6518C3.8443 10.9251 3.52317 11.2052 3.1952 11.4785C3.12346 11.54 3.07221 11.6357 2.96289 11.6459C2.97655 11.5434 2.93556 11.4375 2.99022 11.3385C3.30794 11.0652 3.62907 10.7919 3.95021 10.522C4.16544 10.3375 4.38408 10.1564 4.60273 9.97194C4.67105 9.91386 4.65397 9.97877 4.65739 10.0095C4.63347 10.1086 4.61981 10.2111 4.60273 10.3136Z" fill="#5591CD"/>
<path id="Vector_24" d="M6.91215 8.75569C6.86432 8.72153 6.89849 8.69761 6.9224 8.6737C7.22304 8.42089 7.52709 8.16808 7.82773 7.91528C8.01562 7.75813 8.20011 7.59756 8.388 7.43699C8.4085 7.41308 8.43242 7.39941 8.46316 7.39258L8.53832 7.54631C8.48024 7.63855 8.38459 7.69321 8.31626 7.77862C7.9473 8.18858 7.53051 8.53363 7.00781 8.73178C6.97706 8.74203 6.94631 8.74886 6.91215 8.75569Z" fill="#488DCA"/>
<path id="Vector_25" d="M12.6686 3.8636C12.7165 3.72012 12.8668 3.67571 12.9556 3.57322C13.0513 3.46389 13.205 3.41607 13.2631 3.26575C13.3758 3.26575 13.4817 3.29649 13.5876 3.31358C13.6799 3.33066 13.6867 3.37165 13.6218 3.42973C13.4817 3.55272 13.3417 3.67912 13.2016 3.79869C13.0684 3.91143 12.9351 4.02417 12.8019 4.13691C12.754 4.04467 12.7096 3.95243 12.6686 3.8636Z" fill="#468CCA"/>
<path id="Vector_26" d="M6.34165 9.70553C6.36557 9.76361 6.29724 9.79094 6.30407 9.84219C6.26991 9.68504 6.1845 9.62696 6.02735 9.65771C5.85995 9.69529 5.70963 9.78069 5.59689 9.91051C5.56615 9.94468 5.52857 9.97542 5.4944 10.0062C5.46707 9.97201 5.4944 9.94126 5.50465 9.91051C5.57298 9.68845 5.7233 9.5313 5.9112 9.4049C5.95219 9.37415 6.00002 9.35365 6.05127 9.33999C6.26991 9.28874 6.38948 9.39465 6.35873 9.61671C6.36215 9.64746 6.35532 9.6782 6.34165 9.70553Z" fill="#428AC9"/>
<path id="Vector_27" d="M6.34162 9.70554C6.34162 9.67138 6.34504 9.63722 6.34504 9.60305C6.34845 9.38099 6.22205 9.29558 6.01365 9.39124C5.77451 9.50056 5.62419 9.69529 5.51828 9.93102C5.49437 9.93444 5.48071 9.9276 5.48754 9.90027C5.5627 9.62013 5.7096 9.39124 5.95216 9.22726C6.01365 9.18626 6.08198 9.16235 6.1503 9.14868C6.26304 9.12477 6.37578 9.19309 6.40311 9.30583C6.44069 9.43907 6.42019 9.58597 6.34162 9.70554Z" fill="#182144"/>
<path id="Vector_28" d="M8.31626 7.7787C8.27185 7.74453 8.31284 7.73087 8.33334 7.71379C8.40509 7.66254 8.44608 7.57372 8.53491 7.54639C8.65106 7.73087 8.83554 7.81286 9.03027 7.88119C9.06785 7.89485 9.10885 7.9051 9.17376 7.92218C8.87654 8.00076 8.62031 7.97001 8.38459 7.80944C8.36751 7.78895 8.34359 7.7787 8.31626 7.7787Z" fill="#458CCA"/>
<path id="Vector_29" d="M18.8761 8.28432C18.7805 8.27407 18.7121 8.20916 18.6267 8.17841C18.5926 8.16475 18.5618 8.12375 18.5277 8.15108C18.5003 8.175 18.5447 8.20916 18.5345 8.24332C18.4833 8.19891 18.4628 8.13058 18.4354 8.06567C18.5892 8.12717 18.7395 8.18866 18.8761 8.28432Z" fill="#63657D"/>
<path id="Vector_30" d="M20.9703 9.72592C20.9977 9.70884 20.9703 9.68834 20.9738 9.66785L21.1207 9.74984L21.1992 9.85233C21.1036 9.825 21.0387 9.77034 20.9703 9.72592Z" fill="#263154"/>
<path id="Vector_31" d="M15.084 7.70355C15.1523 7.6933 15.2241 7.70013 15.289 7.71721C15.207 7.76504 15.1523 7.75821 15.084 7.70355Z" fill="#A09AA9"/>
<path id="Vector_32" d="M5.2655 19.5615C5.34408 19.5752 5.38166 19.6538 5.44657 19.6879L5.44315 19.7187C5.37141 19.6845 5.30992 19.6298 5.2655 19.5615Z" fill="#424A7F"/>
<path id="Vector_33" d="M21.5375 14.666L21.5819 14.6933C21.5887 14.7446 21.5648 14.789 21.5375 14.8505V14.666Z" fill="#8CB7DE"/>
<path id="Vector_34" d="M15.0772 3.82935C15.0942 3.86693 15.1352 3.85326 15.1626 3.86351L15.0259 3.91817C15.0157 3.86009 15.0498 3.84643 15.0772 3.82935Z" fill="#5A5D76"/>
<path id="Vector_35" d="M5.49094 9.90015L5.52169 9.93089C5.51486 9.95481 5.50461 9.98214 5.49778 10.0061L5.44312 10.0778C5.45678 9.99239 5.4602 9.94114 5.49094 9.90015Z" fill="#4F668A"/>
<path id="Vector_36" d="M11.8522 5.90989C11.8453 5.8894 11.8487 5.86207 11.8214 5.85182C11.8282 5.83132 11.8522 5.80399 11.8624 5.81424C11.8932 5.84498 11.8795 5.87915 11.8522 5.90989Z" fill="#555A73"/>
<path id="Vector_37" d="M3.2157 9.97877C3.24986 9.79429 3.28744 9.60981 3.36943 9.43899C3.67007 9.22718 3.93654 8.97437 4.21668 8.73864C4.7018 8.32869 5.18692 7.91873 5.66862 7.50535C6.10933 7.12956 6.55003 6.75376 6.99416 6.37796C7.47244 5.97142 7.95073 5.56488 8.42901 5.15834C8.86289 4.78937 9.30017 4.42041 9.73405 4.04803C10.0381 3.78839 10.349 3.53216 10.6462 3.26569C10.8068 3.22811 10.9673 3.20761 11.1313 3.21445C11.145 3.20078 11.1655 3.20078 11.1826 3.20761C11.2201 3.26911 11.1723 3.30327 11.1347 3.33743C10.7214 3.6859 10.3114 4.03778 9.89803 4.38966C9.45733 4.76204 9.02004 5.13442 8.57933 5.51022C8.17279 5.85527 7.76966 6.20031 7.36312 6.54536C6.87117 6.96557 6.3758 7.38236 5.88043 7.80257C5.26549 8.32185 4.65397 8.84797 4.03903 9.36725C3.79989 9.56881 3.56758 9.77379 3.32502 9.96852C3.30452 9.99244 3.26353 10.071 3.2157 9.97877Z" fill="#6D9CD2"/>
<path id="Vector_38" d="M10.6462 3.26575C10.6018 3.40923 10.4652 3.46389 10.3661 3.55272C10.0415 3.83969 9.70673 4.11641 9.37876 4.39655C9.0098 4.70744 8.63742 5.01832 8.26846 5.33262C7.94732 5.60593 7.63302 5.88265 7.31188 6.15596C7.001 6.41902 6.6867 6.67866 6.37581 6.94513C6.06493 7.2116 5.75746 7.47808 5.44657 7.74113C5.13568 8.00419 4.8248 8.26725 4.5105 8.53031C4.25427 8.74895 4.00146 8.9676 3.74524 9.18624C3.64275 9.27506 3.53684 9.36047 3.43094 9.44588C3.40702 9.46296 3.38653 9.47321 3.36603 9.44588C3.40361 9.26823 3.46168 9.094 3.54368 8.93343C3.7794 8.78311 3.97755 8.58838 4.18936 8.41073C4.67448 8.00078 5.1596 7.59082 5.6413 7.17744C6.14008 6.7504 6.64228 6.32336 7.14107 5.89973C7.55444 5.54785 7.96782 5.19939 8.37778 4.84751C8.91414 4.39313 9.44709 3.93193 9.98687 3.48098C10.0279 3.45365 10.0586 3.41607 10.0757 3.37507C10.2636 3.29991 10.4583 3.30333 10.6462 3.26575Z" fill="#729FD4"/>
<path id="Vector_39" d="M10.0825 3.36816C10.1611 3.38866 10.0962 3.41941 10.0825 3.43307C9.939 3.56289 9.7921 3.69272 9.64178 3.81912C9.38214 4.03776 9.1225 4.25641 8.86286 4.47505C8.48365 4.79277 8.10444 5.11391 7.72523 5.43504C7.41434 5.6981 7.10687 5.96799 6.79598 6.23105C6.47485 6.50435 6.15372 6.77424 5.83258 7.04413C5.5217 7.30719 5.21423 7.57366 4.90334 7.84014C4.59245 8.10319 4.28157 8.36625 3.97068 8.62931C3.85794 8.72496 3.7452 8.82062 3.62905 8.91628C3.60514 8.93336 3.58122 8.97777 3.54706 8.92994C3.58122 8.75571 3.67346 8.60198 3.75204 8.44483C4.17225 8.08611 4.59587 7.7274 5.01949 7.36527C5.45337 6.99289 5.89066 6.62392 6.32453 6.25496C6.74132 5.89966 7.1547 5.54778 7.57149 5.1959C8.00878 4.82352 8.44949 4.44772 8.88678 4.07534C9.11225 3.88403 9.33431 3.68247 9.57004 3.49457C9.73061 3.41941 9.90826 3.39891 10.0825 3.36816Z" fill="#78A2D5"/>
<path id="Vector_40" d="M9.57008 3.49463C9.4061 3.70644 9.18745 3.85334 8.9893 4.02758C8.72966 4.25305 8.46661 4.47511 8.20355 4.69718C7.94732 4.9124 7.6911 5.12763 7.43488 5.34628C7.17865 5.56492 6.92584 5.78357 6.66962 5.9988C6.41339 6.21744 6.15034 6.43609 5.8907 6.65473C5.63789 6.86996 5.38849 7.08519 5.13569 7.30042C4.81455 7.57372 4.49342 7.84361 4.17228 8.1135C4.05954 8.20916 3.94339 8.30482 3.83065 8.40047C3.81015 8.42097 3.78282 8.43464 3.75208 8.43805C3.83407 8.22282 3.93656 8.01784 4.05954 7.82311C4.64374 7.34824 5.21426 6.85288 5.78821 6.36434C6.45439 5.79723 7.12057 5.23696 7.78334 4.66643C8.15572 4.34529 8.54518 4.03782 8.90731 3.69961C9.11912 3.6142 9.34119 3.54587 9.57008 3.49463Z" fill="#7DA5D6"/>
<path id="Vector_41" d="M8.90386 3.703C8.93119 3.74742 8.88336 3.76108 8.86286 3.78158C8.57931 4.03097 8.29234 4.27695 8.00537 4.52292C7.75256 4.73815 7.49975 4.94996 7.24694 5.16519C6.93264 5.43166 6.61834 5.69814 6.30404 5.96119C6.04781 6.17984 5.795 6.39848 5.53878 6.61371C5.21764 6.88702 4.89651 7.15691 4.57879 7.4268C4.44555 7.53954 4.31232 7.65569 4.1825 7.76843C4.14833 7.80259 4.10392 7.82309 4.05951 7.82992C4.21666 7.51221 4.40797 7.21157 4.6232 6.93485C4.82135 6.78795 5.00242 6.62055 5.19031 6.46339C5.67885 6.05002 6.16397 5.63664 6.64909 5.22327C7.02488 4.90213 7.40068 4.581 7.77647 4.26328C7.83455 4.21545 7.90629 4.18129 7.95071 4.11638C8.25134 3.92848 8.57931 3.81916 8.90386 3.703Z" fill="#81A7D8"/>
<path id="Vector_42" d="M14.3085 15.1306C14.0523 15.3424 13.7961 15.5577 13.4544 15.7046C13.5535 15.5064 13.6287 15.298 13.6799 15.0828C13.8815 14.1945 13.6936 13.3849 13.1709 12.6504C13.0411 12.4693 12.8668 12.3292 12.7131 12.1687C12.6892 12.1413 12.6619 12.1106 12.6174 12.1311C12.5696 12.1072 12.5491 12.0628 12.515 12.0286C12.5355 12.0013 12.5594 12.0149 12.5833 12.0286C13.2016 12.3805 13.7175 12.8348 14.0352 13.4874C14.189 13.8085 14.2846 14.157 14.3154 14.5123C14.3359 14.7172 14.3324 14.9256 14.3085 15.1306Z" fill="#0E1F66"/>
<path id="Vector_43" d="M3.21567 9.97879C3.31816 10.0164 3.35233 9.91388 3.40357 9.87289C3.92285 9.44243 4.4353 9.00514 4.94775 8.56443C5.43287 8.15106 5.91116 7.73427 6.39627 7.32089C6.93605 6.8631 7.47925 6.40873 8.02244 5.95094C8.50756 5.53757 8.98926 5.12078 9.47438 4.7074C9.99708 4.26328 10.5198 3.81574 11.0459 3.3682C11.1006 3.32379 11.1757 3.29987 11.186 3.21447C11.2167 3.18714 11.2577 3.21788 11.2885 3.19055H11.4183C11.3807 3.3272 11.2475 3.37503 11.1552 3.45703C10.8887 3.69617 10.612 3.92165 10.3421 4.15054C10.0312 4.4136 9.71694 4.67665 9.40606 4.93971C9.15325 5.15494 8.90386 5.37017 8.65105 5.5854C8.27867 5.8997 7.90287 6.214 7.53391 6.53172C7.2811 6.74695 7.03171 6.96218 6.7789 7.1774C6.45777 7.45071 6.13663 7.7206 5.8155 7.99049C5.56269 8.20572 5.3133 8.42095 5.06049 8.63618C4.80085 8.85482 4.54121 9.07347 4.28157 9.29211C4.02193 9.51076 3.7657 9.73623 3.50606 9.95488C3.41724 10.03 3.32158 10.1052 3.22934 10.1804C3.20884 10.1974 3.18834 10.2111 3.16443 10.1804C3.16443 10.1154 3.18151 10.0437 3.21567 9.97879Z" fill="#699AD1"/>
<path id="Vector_44" d="M7.95415 4.1095C7.93365 4.23248 7.81408 4.26323 7.73892 4.33156C7.47586 4.56728 7.20597 4.78935 6.93608 5.01824C6.62178 5.28471 6.30748 5.54777 5.99318 5.81424C5.74037 6.02947 5.49098 6.2447 5.23817 6.45993C5.05369 6.61708 4.87262 6.77423 4.68814 6.93138C4.66764 6.94846 4.64714 6.96213 4.62323 6.93138C4.75647 6.7264 4.90679 6.53167 5.07077 6.34719C5.67204 5.64684 6.35872 5.03874 7.14448 4.5502C7.40754 4.38964 7.66718 4.22224 7.95415 4.1095Z" fill="#88ABD9"/>
<path id="Vector_45" d="M12.3885 3.19054C12.3031 3.18029 12.2143 3.21787 12.1323 3.16663C12.2177 3.17688 12.3066 3.1393 12.3885 3.19054Z" fill="#5591CD"/>
<path id="Vector_46" d="M11.2851 3.19052C11.2578 3.2281 11.2168 3.21102 11.1826 3.21443H11.1313C11.1792 3.17002 11.2338 3.19735 11.2851 3.19052Z" fill="#689AD1"/>
<path id="Vector_47" d="M8.82532 21.0238C9.66232 21.0614 10.4959 20.9282 11.2782 20.6378C12.0401 20.3611 12.7507 19.9613 13.3827 19.4523C14.0011 18.9501 14.534 18.3762 14.8893 17.6553C15.0806 17.2693 15.2002 16.8525 15.2378 16.4254C15.2719 16.0394 15.207 15.6739 15.1011 15.3117C15.1114 15.2229 15.1933 15.1819 15.2412 15.1204C15.4257 14.8778 15.5589 14.6182 15.617 14.3176C15.6272 14.2766 15.6409 14.239 15.658 14.2014C15.7741 14.4337 15.8664 14.6763 15.9313 14.9257C16.0201 15.2776 16.0713 15.6363 16.044 15.9984C15.9962 16.627 15.8083 17.2385 15.494 17.7851C15.1797 18.3386 14.7766 18.81 14.3119 19.2337C13.902 19.5992 13.451 19.9169 12.9659 20.1732C12.3817 20.4909 11.7599 20.7266 11.1108 20.8803C10.7077 20.976 10.2943 21.0341 9.88096 21.058C9.6794 21.0682 9.48125 21.0853 9.28311 21.0751C9.1362 21.0614 8.97905 21.0716 8.82532 21.0238Z" fill="#0E1F66"/>
</g>
<defs>
<clipPath id="clip0_287_16546">
<rect width="24" height="24" fill="white"/>
</clipPath>
</defs>
</svg>
