<svg width="24" height="24" viewBox="0 0 24 24" fill="none" xmlns="http://www.w3.org/2000/svg">
<g id="tokens=uniswap" clip-path="url(#clip0_287_16507)">
<path id="Vector" d="M24 12C24 18.6274 18.6274 24 12 24C5.37258 24 0 18.6274 0 12C0 5.37258 5.37258 0 12 0C18.6274 0 24 5.37258 24 12Z" fill="#050222"/>
<path id="Vector_2" fill-rule="evenodd" clip-rule="evenodd" d="M10.1763 9.9621C10.1464 10.0774 10.0942 10.1858 10.0227 10.2809C9.88965 10.4544 9.7135 10.5897 9.51195 10.6733C9.3307 10.7517 9.1387 10.8025 8.94245 10.8237C8.9021 10.8289 8.8603 10.832 8.81975 10.8351L8.81315 10.8357C8.68885 10.8404 8.56935 10.885 8.4721 10.9629C8.37485 11.0409 8.305 11.148 8.27275 11.2687C8.258 11.3287 8.247 11.3896 8.2399 11.451C8.2286 11.5437 8.2228 11.6385 8.2165 11.7411C8.212 11.8147 8.2072 11.8924 8.2 11.9761C8.1578 12.3169 8.05965 12.6483 7.9096 12.9568C7.87895 13.0217 7.8477 13.0845 7.81695 13.1463C7.65245 13.4773 7.5038 13.7763 7.54645 14.1768C7.57985 14.4853 7.7372 14.692 7.94625 14.9053C8.04555 15.0073 8.1772 15.0944 8.31385 15.1849C8.69635 15.4381 9.11805 15.7174 8.9791 16.4207C8.8654 16.9907 7.9247 17.5888 6.6025 17.7977C6.73075 17.7782 6.44825 17.294 6.4169 17.2402L6.415 17.2369C6.37855 17.1796 6.3412 17.1231 6.30395 17.0667C6.19635 16.9038 6.08915 16.7417 6.00555 16.562C5.78465 16.0928 5.68225 15.5499 5.77275 15.0357C5.85475 14.5703 6.16105 14.1986 6.4559 13.8406C6.504 13.7823 6.55175 13.7243 6.5982 13.6664C6.9926 13.1744 7.4064 12.5297 7.49795 11.8911C7.5057 11.8356 7.5126 11.7751 7.51985 11.7114C7.53285 11.5975 7.54695 11.4734 7.5691 11.3498C7.60195 11.1364 7.66855 10.9296 7.7663 10.7372C7.833 10.611 7.92085 10.4973 8.026 10.401C8.0808 10.3499 8.11695 10.2819 8.1287 10.2077C8.1404 10.1335 8.127 10.0575 8.09065 9.99185L5.9829 6.18365L9.01035 9.93665C9.04485 9.98015 9.0884 10.0155 9.138 10.0401C9.1876 10.0648 9.242 10.0782 9.2973 10.0794C9.35265 10.0806 9.40755 10.0696 9.45815 10.047C9.50875 10.0245 9.5538 9.99105 9.5901 9.9491C9.62845 9.9042 9.6502 9.84735 9.65165 9.78815C9.65315 9.729 9.63425 9.67115 9.59815 9.62435C9.4574 9.44365 9.3109 9.2605 9.1651 9.07815C9.1061 9.0044 9.04715 8.93065 8.9888 8.8574L8.22695 7.91025L6.69785 6.0191L5 4L6.894 5.8497L8.52165 7.65745L9.33365 8.5635C9.40825 8.6479 9.48285 8.73155 9.5574 8.81515C9.7522 9.03355 9.947 9.25195 10.1418 9.48365L10.186 9.53775L10.1957 9.62165C10.2088 9.7354 10.2023 9.8506 10.1763 9.9621ZM17.9624 11.2348L17.9655 11.2397C17.965 10.8359 17.7161 10.1697 17.2124 9.52885L17.2005 9.51315C17.0453 9.3205 16.8762 9.1396 16.6945 8.9719C16.6606 8.9389 16.624 8.9064 16.5868 8.87395C16.354 8.67005 16.0997 8.4925 15.8282 8.3446L15.8088 8.33485C14.9559 7.8683 13.846 7.628 12.4775 7.8986C12.2937 7.67445 12.0957 7.4624 11.8848 7.26375C11.5618 6.95455 11.1816 6.71205 10.7657 6.54985C10.3536 6.3983 9.9122 6.3442 9.47585 6.3918C9.89645 6.42985 10.3061 6.54735 10.6833 6.7382C11.0476 6.93425 11.3756 7.19165 11.6531 7.4992C11.9344 7.81315 12.1988 8.14195 12.4452 8.48425L12.507 8.5651C12.748 8.88045 12.9934 9.2015 13.2991 9.4872C13.4674 9.64625 13.6552 9.7832 13.8579 9.89475C13.9117 9.92235 13.9661 9.9483 14.0195 9.97105C14.0728 9.9938 14.1229 10.0149 14.1768 10.0344C14.2808 10.075 14.3885 10.1085 14.4963 10.1394C14.9274 10.2628 15.3686 10.3072 15.7997 10.331C15.8596 10.3342 15.9194 10.3371 15.979 10.34C16.133 10.3477 16.2856 10.3552 16.4359 10.3661C16.6418 10.3784 16.8461 10.4107 17.0459 10.4625C17.3459 10.5411 17.6101 10.7206 17.7943 10.9712C17.8569 11.0547 17.9131 11.1428 17.9624 11.2348ZM16.7006 8.97255C16.679 8.95245 16.6569 8.93255 16.635 8.9127C16.6209 8.89995 16.6068 8.88725 16.5929 8.87455C16.6036 8.8844 16.6144 8.89435 16.6252 8.90435C16.6505 8.9278 16.6757 8.95125 16.7006 8.97255ZM16.1619 12.9586C14.7758 12.3936 13.3259 11.8026 13.5417 10.1438C14.0045 10.6401 14.731 10.7442 15.5211 10.8574C16.2379 10.9601 17.0069 11.0703 17.6791 11.4876C19.2653 12.4717 19.0337 14.3833 18.4949 15.087C18.5435 13.9293 17.3772 13.454 16.1619 12.9586ZM10.5775 12.1284C10.9434 12.0932 11.723 11.9021 11.3744 11.2856C11.2994 11.1602 11.1908 11.0586 11.0609 10.9924C10.931 10.9262 10.7851 10.8983 10.64 10.9116C10.4929 10.9275 10.3541 10.9885 10.2426 11.0863C10.1311 11.1841 10.0522 11.3139 10.0167 11.4583C9.9084 11.8615 10.0231 12.1825 10.5775 12.1284ZM10.4724 7.2507C10.2429 6.9844 9.88675 6.84475 9.5376 6.7939C9.52455 6.88125 9.5163 6.96925 9.51285 7.0575C9.4972 7.78435 9.7542 8.5827 10.2515 9.1375C10.4106 9.31685 10.6024 9.4638 10.8167 9.5705C10.9406 9.6311 11.2693 9.78155 11.3911 9.64625C11.4003 9.63385 11.4062 9.6192 11.408 9.6038C11.4098 9.5884 11.4075 9.5728 11.4013 9.5586C11.3811 9.50065 11.3421 9.44805 11.3034 9.39585C11.276 9.35885 11.2487 9.32205 11.2283 9.2836C11.2077 9.2449 11.1857 9.2071 11.1637 9.1694C11.1224 9.0985 11.0811 9.02775 11.0494 8.95075C10.966 8.7492 10.9225 8.5349 10.8792 8.32125C10.8705 8.27855 10.8618 8.2356 10.8528 8.193C10.7866 7.8634 10.7019 7.517 10.4724 7.2507ZM15.3762 13.049C15.0201 14.0471 15.5944 14.8902 16.1653 15.7283C16.8039 16.6658 17.4382 17.597 16.7614 18.7321C18.0766 18.1865 18.7011 16.5384 18.1553 15.2308C17.8114 14.4037 16.9825 13.9553 16.2131 13.5392C15.9146 13.3777 15.6249 13.2211 15.3762 13.049ZM11.5276 15.4317C11.2893 15.5294 11.0645 15.6576 10.8589 15.8132C11.3263 15.643 11.8169 15.5457 12.3137 15.5247C12.4037 15.5194 12.4943 15.5152 12.5857 15.511C12.7436 15.5036 12.9042 15.4962 13.068 15.4825C13.3364 15.4642 13.6013 15.4096 13.8552 15.3202C14.1213 15.2267 14.3634 15.0751 14.5642 14.8764C14.7671 14.6712 14.9094 14.4136 14.9753 14.1321C15.0333 13.8662 15.0252 13.59 14.9516 13.3281C14.878 13.0661 14.7413 12.8264 14.5534 12.6301C14.644 12.861 14.6998 13.1042 14.7189 13.3517C14.7353 13.582 14.7041 13.8132 14.6272 14.0309C14.5522 14.2372 14.4296 14.4227 14.2695 14.5722C14.104 14.7231 13.9125 14.8423 13.7043 14.924C13.415 15.041 13.0878 15.089 12.747 15.1389C12.5915 15.1616 12.4332 15.1848 12.2744 15.2151C12.0189 15.2621 11.7687 15.3347 11.5276 15.4317ZM15.6594 19.5523L15.6365 19.5707C15.5763 19.6194 15.515 19.669 15.4491 19.7134C15.365 19.769 15.277 19.8182 15.1856 19.8606C14.9954 19.9538 14.7863 20.0015 14.5746 19.9997C14.0014 19.9889 13.5962 19.5603 13.3591 19.0758C13.297 18.9488 13.2423 18.818 13.1875 18.687C13.0998 18.4775 13.0122 18.268 12.8941 18.0745C12.6199 17.6247 12.1507 17.2627 11.6011 17.3298C11.3769 17.3579 11.1668 17.4591 11.0423 17.6545C10.7147 18.1649 11.1851 18.8799 11.7848 18.7787C11.8358 18.7709 11.8857 18.7571 11.9335 18.7376C11.9812 18.7172 12.0256 18.69 12.0655 18.6569C12.1493 18.5868 12.2124 18.4952 12.2481 18.3917C12.2875 18.2838 12.2963 18.1671 12.2735 18.0545C12.2489 17.9368 12.1797 17.8334 12.0806 17.766C12.1958 17.8202 12.2857 17.9172 12.3312 18.0366C12.3783 18.1595 12.3905 18.2931 12.3661 18.4226C12.3426 18.5574 12.2835 18.6833 12.1948 18.7873C12.1478 18.8408 12.0933 18.8873 12.0332 18.9254C11.9736 18.9629 11.9098 18.9933 11.843 19.0158C11.7077 19.0622 11.5636 19.0772 11.4216 19.0596C11.2224 19.0311 11.0344 18.9492 10.8775 18.8225C10.8485 18.7995 10.8207 18.7754 10.7937 18.7504C10.687 18.6579 10.5901 18.5543 10.5047 18.4415C10.4663 18.399 10.4274 18.3572 10.3867 18.317C10.1946 18.1145 9.9679 17.9482 9.71745 17.8261C9.54475 17.7499 9.364 17.6936 9.1787 17.6583C9.08545 17.6388 8.9912 17.6248 8.8969 17.6129C8.88665 17.6118 8.867 17.6083 8.8425 17.6041C8.7638 17.5903 8.63555 17.568 8.61295 17.589C8.9044 17.3195 9.22205 17.0801 9.5612 16.8745C9.90945 16.667 10.2833 16.5063 10.6733 16.3967C11.0775 16.2824 11.5004 16.2498 11.9173 16.3008C12.1319 16.3267 12.3421 16.3813 12.5423 16.4632C12.7521 16.5474 12.9457 16.6676 13.1145 16.8183C13.2816 16.9764 13.4166 17.1656 13.5121 17.3752C13.5984 17.5716 13.6627 17.7769 13.7039 17.9874C13.7261 18.1007 13.7427 18.2251 13.7599 18.354C13.8385 18.9411 13.9292 19.6186 14.6021 19.7367C14.6449 19.745 14.6881 19.7512 14.7315 19.7551L14.8656 19.7583C14.9578 19.7517 15.0495 19.7385 15.1398 19.7188C15.327 19.6746 15.5095 19.6121 15.6846 19.5321L15.6594 19.5523ZM10.54 18.4809C10.5561 18.4994 10.5725 18.5177 10.589 18.5359C10.5822 18.5283 10.5755 18.5208 10.5688 18.5132C10.5592 18.5025 10.5496 18.4917 10.54 18.4809Z" fill="white"/>
</g>
<defs>
<clipPath id="clip0_287_16507">
<rect width="24" height="24" fill="white"/>
</clipPath>
</defs>
</svg>
