<svg width="24" height="24" viewBox="0 0 24 24" fill="none" xmlns="http://www.w3.org/2000/svg">
<g id="select_wallet=venly">
<g id="venly">
<path id="Vector" d="M21.8055 9.04554L19.3524 9.97729C19.2493 10.0148 19.1493 9.91479 19.193 9.81159L21.9275 3.1736C21.9681 3.07355 21.8712 2.97037 21.7712 3.00789L16.5742 4.82763C16.4742 4.86202 16.393 4.94019 16.3524 5.04024L12.8305 13.9294C12.7867 14.042 12.8961 14.1546 13.0086 14.1139L15.2086 13.3072C15.3305 13.2634 15.443 13.3948 15.3773 13.5105L12.1461 18.9978C12.0773 19.1167 11.9023 19.1167 11.8336 18.9978L8.60227 13.5073C8.53662 13.3948 8.64602 13.2603 8.77102 13.3041L10.9711 14.1108C11.0836 14.1514 11.1929 14.0389 11.1492 13.9263L7.62412 5.04024C7.58347 4.94019 7.50537 4.86515 7.40222 4.82763L2.21155 3.00789C2.10843 2.97349 2.01468 3.07355 2.0553 3.1736L4.78659 9.81159C4.82721 9.91164 4.72721 10.0148 4.62721 9.97729L2.18968 9.04554C2.06468 8.99864 1.95218 9.13309 2.02093 9.24879L9.27727 21.2678C9.34912 21.3866 9.47727 21.4585 9.61792 21.4585H14.3742C14.5117 21.4585 14.643 21.3866 14.7148 21.2678L21.9837 9.24879C22.043 9.13309 21.9305 8.99864 21.8055 9.04554Z" fill="#7927FF"/>
</g>
</g>
</svg>
