<svg width="24" height="24" viewBox="0 0 24 24" fill="none" xmlns="http://www.w3.org/2000/svg">
<g id="select_wallet=walletConnect">
<g id="walletConnect">
<path id="Vector" fill-rule="evenodd" clip-rule="evenodd" d="M12 2C17.5229 2 22 6.47715 22 12C22 17.5229 17.5229 22 12 22C6.47715 22 2 17.5229 2 12C2 6.47715 6.47715 2 12 2Z" fill="url(#paint0_radial_2173_51144)"/>
<path id="Vector_2" d="M8.35515 9.723C10.3681 7.759 13.6318 7.759 15.6448 9.723L15.8871 9.95935C15.9878 10.0576 15.9878 10.2168 15.8871 10.315L15.0584 11.1236C15.008 11.1727 14.9264 11.1727 14.8761 11.1236L14.5427 10.7983C13.1384 9.42815 10.8616 9.42815 9.45725 10.7983L9.10025 11.1467C9.0499 11.1958 8.9683 11.1958 8.918 11.1467L8.08925 10.338C7.9886 10.2398 7.9886 10.0806 8.08925 9.98245L8.35515 9.723ZM17.3588 11.3952L18.0964 12.1149C18.197 12.2131 18.197 12.3723 18.0964 12.4705L14.7705 15.7154C14.6699 15.8136 14.5067 15.8136 14.406 15.7154L12.0456 13.4124C12.0204 13.3879 11.9796 13.3879 11.9544 13.4124L9.59405 15.7154C9.4934 15.8136 9.3302 15.8136 9.22955 15.7154L5.90361 12.4705C5.80296 12.3723 5.80296 12.213 5.90361 12.1148L6.6412 11.3952C6.74185 11.297 6.90504 11.297 7.0057 11.3952L9.3662 13.6982C9.39135 13.7228 9.43215 13.7228 9.4573 13.6982L11.8177 11.3952C11.9183 11.297 12.0815 11.297 12.1822 11.3952C12.1822 11.3952 12.1822 11.3952 12.1822 11.3952L14.5427 13.6982C14.5679 13.7228 14.6087 13.7228 14.6338 13.6982L16.9943 11.3952C17.0949 11.297 17.2581 11.297 17.3588 11.3952Z" fill="white"/>
</g>
</g>
<defs>
<radialGradient id="paint0_radial_2173_51144" cx="0" cy="0" r="1" gradientUnits="userSpaceOnUse" gradientTransform="translate(2 12) scale(20)">
<stop stop-color="#5D9DF6"/>
<stop offset="1" stop-color="#006FFF"/>
</radialGradient>
</defs>
</svg>
